<svg width="31" height="30" viewBox="0 0 31 30" fill="none" xmlns="http://www.w3.org/2000/svg">
<path d="M20.7794 12.5745C20.7903 12.6256 20.765 12.7017 20.7692 12.7628C20.7855 13.0082 20.774 13.1074 20.7813 13.3194C20.7818 13.3308 20.7823 13.3425 20.7827 13.3545C20.7956 13.5617 20.7819 13.9847 20.6413 14.3193C20.5084 14.657 20.2868 14.8791 20.1974 14.8125C20.1974 14.8125 20.1974 14.8125 20.1974 14.8125C20.1956 14.8112 20.1938 14.8099 20.1921 14.8084C20.1598 14.7805 20.1719 14.6764 20.1367 14.6398C20.1015 14.6034 19.8331 14.4462 19.8666 14.3477C19.9262 14.2109 20.1028 13.8775 20.102 13.7874C20.1074 13.73 20.0853 13.6578 20.0816 13.5863C20.0778 13.5102 20.073 13.4465 20.0653 13.388C20.0476 13.2483 20.0288 13.1326 19.9615 12.9755C19.9929 12.8751 20.0242 12.7746 20.0556 12.6742C20.0247 12.55 20.0599 12.354 20.0497 12.2778C20.0412 12.2152 20.0056 12.1815 19.9978 12.1162C19.9889 12.043 20.0128 11.927 19.9948 11.794C19.9666 11.585 19.885 11.5479 19.8579 11.4304C19.8568 11.4261 19.8558 11.4217 19.8549 11.4172C19.8338 11.3053 19.8399 11.1154 19.7571 10.9861C19.7418 10.9721 19.7264 10.9585 19.7107 10.9452C19.6965 10.9654 19.682 10.9852 19.6671 11.0045C19.632 10.9432 19.6583 10.898 19.6287 10.8382C19.5931 10.7684 19.5373 10.756 19.5098 10.7134C19.4873 10.6786 19.4804 10.6127 19.4438 10.5705C19.3902 10.5099 19.3656 10.5549 19.3311 10.5295C19.3216 10.5133 19.0745 10.3316 19.0567 10.3287C19.0101 10.2973 18.9872 10.27 18.9689 10.243C18.9358 10.2024 18.9145 10.1642 18.8504 10.1227C18.5368 9.92013 18.1803 9.77065 17.873 9.61247C17.7358 9.54185 17.5991 9.45703 17.472 9.37017C17.7642 9.35085 17.3679 8.96841 17.4095 9.29249C17.2808 9.17409 17.141 9.17262 17.0074 9.08022C16.921 9.0204 16.8766 8.95274 16.7472 8.87759C16.647 8.81954 16.5331 8.77543 16.4388 8.7278C16.3409 8.68033 16.268 8.63583 16.2729 8.5258C16.0219 8.45594 15.7924 8.37068 15.6959 8.52984C15.6353 8.53509 15.4661 8.44629 15.3871 8.44698C15.3444 8.44428 15.1294 8.4654 14.9522 8.53034C14.8131 8.58041 14.6894 8.62592 14.6496 8.64221C14.5505 8.6827 14.3776 8.75508 14.3007 8.80413C14.2039 8.8655 14.1985 9.05145 13.9351 8.95148C13.7265 9.05968 13.6476 9.08786 13.4386 9.15394C13.4007 9.16591 13.385 9.1409 13.3638 9.15008C13.3203 9.16905 13.2548 9.22112 13.1781 9.25739C13.1523 9.2696 13.1276 9.27828 13.1052 9.28505C13.0287 9.30703 12.9804 9.30701 13.0242 9.36816C12.9613 9.41805 12.9029 9.47178 12.8493 9.52859C12.817 9.52915 12.7842 9.53076 12.7512 9.53342C12.7299 9.57492 12.7108 9.61676 12.6937 9.65874C12.6366 9.52142 12.4802 9.79334 12.6061 9.77627C12.4878 9.86268 12.3784 9.9675 12.2834 10.0883C12.2818 10.0903 12.2803 10.0923 12.2788 10.0943C12.1538 10.0002 12.0804 10.4321 12.171 10.4403C12.1614 10.4583 12.1518 10.4763 12.1421 10.4942C12.0225 10.633 11.9756 10.7936 11.8497 10.9732C11.7237 11.1528 11.72 11.1277 11.6262 11.1531C11.6059 11.2003 11.5856 11.2475 11.5653 11.2946C11.6121 11.6232 11.3361 11.4238 11.2534 11.9004C11.0765 11.9733 10.9642 12.3238 10.8849 12.5536C10.8757 12.5803 10.8964 12.5918 10.8855 12.6282C10.8586 12.7169 10.7232 12.9081 10.7947 12.9368C10.7375 12.9976 10.6804 13.0584 10.6232 13.1191C10.6049 13.1838 10.5865 13.2484 10.5681 13.313C10.5895 13.3239 10.6108 13.3348 10.6321 13.3457C10.4982 13.4246 10.4288 13.6232 10.3637 13.7048C10.3507 13.721 10.3194 13.7095 10.2818 13.7614C10.2378 13.822 10.1819 13.9488 10.1315 14.0222C10.1478 14.0696 10.1641 14.1171 10.1804 14.1645C10.1241 14.3136 10.0129 14.3176 9.9629 14.3962C9.95395 14.4104 9.81776 14.6832 9.81192 14.6987C9.76358 14.8253 9.85407 14.83 9.65694 15.1657C9.62179 15.2254 9.57049 15.2617 9.54025 15.3165C9.48681 15.4134 9.38831 15.7382 9.4288 15.7892C9.3002 15.873 9.15965 16.2046 9.09124 16.288C9.07048 16.3131 9.02509 16.2973 8.97037 16.3793C8.92597 16.4457 8.86405 16.6445 8.81135 16.7307C8.75526 16.8221 8.70211 16.8373 8.67723 16.8784C8.65376 16.9172 8.66276 16.9692 8.63378 17.0237C8.54282 17.1936 8.41548 17.3237 8.34353 17.458C8.25649 17.6202 8.23768 17.7981 8.2055 17.9589C8.20033 17.9883 8.19506 18.017 8.18899 18.0447C8.16488 18.0792 8.12889 18.1069 8.11031 18.1471C7.87787 18.6376 7.7374 19.2468 7.7417 19.798C7.72441 20.0503 7.73858 20.7116 7.91333 20.4934C7.95572 20.5704 8.08385 21.1955 8.15261 21.3032C8.20607 21.4131 8.28743 21.4778 8.33695 21.5581C8.4891 21.7984 8.58871 21.9822 8.85507 22.209C8.92463 22.2672 9.02557 22.2978 9.06434 22.3327C9.11052 22.3746 9.13436 22.4531 9.19766 22.5065C9.29238 22.5867 9.45081 22.6936 9.60071 22.779C9.67912 22.8241 9.75312 22.8673 9.81323 22.9044C9.82662 22.9126 9.83928 22.9205 9.85108 22.9279C9.88042 22.9463 9.8719 22.9864 9.91018 23.021C10.0597 23.1574 10.2697 23.2374 10.28 23.107C10.4814 23.2666 10.7249 23.2714 10.9457 23.3113C11.4127 23.4242 12.3095 23.3898 12.6879 23.1934C12.9263 23.079 12.899 23.0392 13.2608 22.9172C13.3408 22.888 13.4215 22.8598 13.5163 22.8164C13.7359 22.717 13.985 22.6521 14.0407 22.4336C14.2633 22.2743 14.3854 22.097 14.5938 21.9969C14.588 21.9621 14.5817 21.9276 14.5749 21.8933C14.5893 21.8724 14.6036 21.8513 14.6176 21.83C14.6226 21.8225 14.6276 21.815 14.6326 21.8075C14.6592 21.8117 14.6858 21.8159 14.7124 21.8201C14.8685 21.6046 14.9772 21.2699 15.1054 21.0848C15.3201 20.7743 15.9029 19.995 16.1327 19.7185C16.2547 19.5718 16.2175 19.5339 16.3674 19.5048C16.3853 19.4656 16.4033 19.4263 16.4212 19.3871C16.417 19.3519 16.4127 19.3167 16.4085 19.2815C16.5458 19.08 16.7396 18.8623 16.8709 18.6707C17.11 18.3214 17.4168 17.7611 17.6925 17.4348C17.7616 17.3531 17.8769 17.2706 17.9356 17.1843C18.021 17.0587 17.9758 16.9829 18.0838 16.8232C18.2699 16.548 18.6971 16.0909 18.8691 15.8281C18.9202 15.7501 18.9203 15.6973 18.9541 15.6424C19.0958 15.4121 19.2234 15.2308 19.332 14.9913C19.5529 14.8057 19.621 14.8817 19.7523 14.8674C19.8516 14.8564 20.1093 14.7906 20.1799 14.8046C20.2296 14.8145 20.2366 14.9098 20.2946 14.9157C20.1397 15.2134 20.0233 15.3032 19.8108 15.4854C19.5302 15.8986 19.2497 16.3119 18.9691 16.7252C18.9204 16.7468 18.8716 16.7684 18.8228 16.7901C18.8228 16.79 18.8227 16.79 18.8227 16.79C18.6875 16.9298 18.7007 17.0375 18.6556 17.132C18.2234 18.0368 17.0184 19.574 16.3863 20.4626C16.2502 20.6541 15.8483 21.3053 15.7196 21.4125C15.6862 21.4402 15.6441 21.4253 15.6174 21.4609C15.4685 21.7106 15.3196 21.9604 15.1706 22.2101C15.1115 22.3083 15.0491 22.4034 14.9823 22.4968C14.3854 23.1328 13.6413 23.6851 12.7866 23.929C11.6811 24.2518 10.4449 24.1033 9.44931 23.5222C9.37799 23.4812 9.30672 23.4401 9.23547 23.399C8.23798 22.8304 7.49281 21.8381 7.22268 20.7281C7.10685 20.2852 7.03066 19.6957 7.1001 19.247C7.12873 19.0599 7.2057 18.9951 7.20492 18.7453C7.22368 18.7468 7.24243 18.7482 7.26118 18.7497C7.28598 18.5387 7.28218 18.3943 7.36017 18.1657C7.39961 18.0497 7.49144 17.824 7.59282 17.6355C7.65365 17.5208 7.70974 17.4173 7.7429 17.3605C7.78606 17.2864 7.80195 17.3309 7.83909 17.2602C7.90245 17.1389 7.99631 16.858 8.08443 16.6911C8.16425 16.5398 8.33429 16.3036 8.39052 16.1847C8.59329 15.7564 8.78144 15.2725 9.03105 14.8338C9.1001 14.7126 9.22371 14.5752 9.24297 14.536C9.28045 14.4594 9.25352 14.4165 9.27526 14.3632C9.38586 14.0926 9.64363 13.7159 9.77856 13.4648C10.2183 12.6462 10.6608 11.7668 11.0998 10.9525C11.2691 10.6384 11.5015 10.1945 11.7208 9.79134C11.8843 9.48662 12.1123 9.24649 12.3091 9.10051C12.4192 9.02054 12.4199 9.08135 12.5104 9.01672C12.6118 8.94727 12.6546 8.88698 12.7049 8.85636C12.7536 8.82715 12.8117 8.79488 12.8779 8.76291C13.2271 8.5913 13.7802 8.32833 14.0525 8.24089C14.1128 8.22157 14.1698 8.23783 14.2043 8.22264C14.2218 8.21502 14.2511 8.17424 14.3051 8.14789C14.4463 8.07885 14.5774 8.01794 14.7043 7.96121C15.0554 7.80799 15.4125 7.7492 15.8325 7.78857C16.1622 7.82144 16.5008 7.92367 16.8075 8.10172C17.4622 8.4799 18.1587 8.86819 18.7893 9.261C18.9824 9.38125 19.079 9.52457 19.1069 9.54015C19.1653 9.57285 19.2262 9.55589 19.3433 9.60743C19.3499 9.61046 19.3566 9.6137 19.3635 9.61717C19.8726 9.85294 20.2903 10.5191 20.4199 11.0193C20.4515 11.1217 20.4881 11.2412 20.5158 11.3674C20.5522 11.5174 20.5922 11.6714 20.6125 11.7976C20.6403 11.9703 20.6548 12.3829 20.69 12.4573C20.7113 12.5025 20.7673 12.519 20.7794 12.5745ZM16.631 8.76065C16.68 8.71985 16.5423 8.65745 16.4804 8.65707C16.4585 8.65874 16.4472 8.66942 16.4597 8.69215C16.4614 8.6947 16.4634 8.6974 16.4657 8.70026C16.4842 8.72329 16.6127 8.77594 16.631 8.76065ZM7.72812 18.7977C7.75286 18.8006 7.77759 18.8035 7.80231 18.8065C7.80155 18.765 7.80138 18.7238 7.802 18.6822C7.78172 18.7001 7.76157 18.7184 7.74156 18.737C7.73695 18.7571 7.73243 18.7775 7.72812 18.7977Z" fill="white"/>
<path d="M21.7636 7.36838C21.769 7.39399 21.735 7.42808 21.7312 7.45708C21.7139 7.5794 21.6845 7.62133 21.6507 7.72566C21.6169 7.88262 21.4466 8.34491 21.2457 8.2193C21.2457 8.2193 21.2457 8.21929 21.2457 8.21929C21.2438 8.21817 21.2419 8.217 21.2399 8.21578C21.204 8.19247 21.1809 8.13852 21.1407 8.11081C21.1004 8.08313 20.8259 7.93265 20.8268 7.89301C20.8314 7.83797 20.9532 7.74824 20.9581 7.71623C20.9621 7.69605 20.9418 7.66434 20.9432 7.63887C20.9471 7.55742 20.9749 7.51596 20.9057 7.43795C20.9491 7.41464 20.9918 7.38842 21.0335 7.35936C21.0162 7.31998 21.0684 7.25882 21.0636 7.23357C21.0599 7.2134 21.0268 7.20432 21.0233 7.18416C21.0192 7.16176 21.0495 7.1216 21.0367 7.07997C21.0153 7.01191 20.9297 7.0203 20.9096 6.98592C20.8915 6.95548 20.9067 6.89608 20.88 6.85545C20.88 6.85545 20.88 6.85545 20.88 6.85545C20.8758 6.849 20.8706 6.84312 20.864 6.83809C20.853 6.83567 20.842 6.83339 20.831 6.83127C20.8136 6.84376 20.796 6.85605 20.7784 6.86814C20.7601 6.84997 20.795 6.82296 20.7858 6.80182C20.7749 6.77702 20.7324 6.78377 20.7244 6.76849C20.7179 6.75598 20.7365 6.72271 20.7248 6.70729C20.708 6.68497 20.6712 6.71527 20.6561 6.70803C20.6508 6.70393 20.5694 6.63548 20.5649 6.63241C20.5361 6.60004 20.582 6.55489 20.5608 6.52355C20.5008 6.43656 20.3834 6.4092 20.2974 6.37929C20.2885 6.37609 20.2798 6.37241 20.2713 6.36829C20.2318 6.348 20.195 6.32163 20.1615 6.29269C20.322 6.19577 20.2172 5.98506 20.1497 6.24491C20.1141 6.18132 20.0403 6.21872 19.9949 6.17828C19.9655 6.15207 19.9607 6.10767 19.9127 6.08051C19.8275 6.03251 19.6837 6.06589 19.7528 5.89316C19.6374 5.86283 19.5856 5.7549 19.4676 5.87378C19.437 5.8673 19.4207 5.74548 19.3988 5.71731C19.3871 5.70237 19.3235 5.64539 19.2642 5.59439C19.2278 5.56029 19.1903 5.53189 19.178 5.52485C19.15 5.5084 19.0981 5.48381 19.0676 5.488C19.0267 5.49207 18.9611 5.64666 18.9575 5.44155C18.8846 5.43929 18.8627 5.42942 18.7999 5.39711C18.7885 5.39142 18.7907 5.36227 18.7834 5.36137C18.7685 5.35957 18.7413 5.37841 18.7151 5.3793C18.6725 5.38077 18.6486 5.31939 18.6517 5.41328C18.6238 5.42848 18.597 5.4446 18.5712 5.46155C18.5611 5.44386 18.5505 5.4263 18.5396 5.40889C18.5262 5.42961 18.5134 5.45055 18.5014 5.47166C18.5031 5.40209 18.479 5.39111 18.4607 5.40754C18.4607 5.40754 18.4607 5.40754 18.4607 5.40754C18.4429 5.42343 18.4332 5.46439 18.4544 5.49998C18.4006 5.47945 18.3437 5.46258 18.2843 5.44997C18.2494 5.29786 18.1613 5.47037 18.2051 5.54524C18.1996 5.54717 18.1941 5.54913 18.1886 5.55114C18.1251 5.53201 18.0949 5.58227 18.0264 5.58844C17.9567 5.59617 17.9543 5.58132 17.8986 5.53217C17.8869 5.54445 17.8754 5.5569 17.8643 5.56951C17.913 5.77504 17.7146 5.49706 17.7009 5.71165C17.581 5.65534 17.5405 5.79485 17.5278 5.8783C17.526 5.88813 17.5452 5.90213 17.5444 5.91587C17.5422 5.94861 17.4778 5.9944 17.5453 6.03157C17.5422 6.03248 17.5392 6.0334 17.5361 6.03434C17.5053 6.0472 17.4745 6.06007 17.4437 6.07293C17.4434 6.10086 17.4432 6.12879 17.4429 6.15671C17.4636 6.16875 17.4842 6.18079 17.5049 6.19282C17.4099 6.19343 17.3981 6.27532 17.3621 6.29797C17.3549 6.30245 17.3256 6.28709 17.306 6.30266C17.2829 6.32077 17.2655 6.36958 17.2401 6.39239C17.2652 6.42184 17.2903 6.4513 17.3154 6.48075C17.3029 6.54096 17.2094 6.50962 17.1856 6.53526C17.1813 6.5399 17.1303 6.64014 17.129 6.6464C17.118 6.69735 17.1959 6.72699 17.1081 6.84145C17.0924 6.86181 17.0574 6.86514 17.0447 6.88442C17.0223 6.91846 17.0156 7.05693 17.0621 7.0955C16.9727 7.10019 16.9319 7.22953 16.8936 7.25212C16.8819 7.25888 16.8396 7.23705 16.8126 7.26302C16.7906 7.28406 16.7851 7.36833 16.7608 7.39709C16.7348 7.42752 16.6933 7.41939 16.6819 7.43317C16.6712 7.44621 16.6911 7.47582 16.6794 7.49531C16.6425 7.55588 16.5652 7.58493 16.5359 7.63277C16.4934 7.7019 16.5393 7.81207 16.5413 7.89205C16.5274 7.90343 16.5014 7.90729 16.4923 7.92242C16.3903 8.09026 16.2667 8.2716 16.1491 8.43616L16.0392 8.01121C16.0578 8.02444 16.0761 8.03758 16.0941 8.05061C16.177 8.11033 16.3292 8.35032 16.3807 8.12983C16.4304 8.11516 16.6077 8.3207 16.6491 8.34665C16.6906 8.37258 16.7437 8.35885 16.7771 8.37786C16.8778 8.43525 16.934 8.50075 17.0727 8.5433C17.1086 8.5542 17.1656 8.53446 17.1839 8.54588C17.2059 8.55972 17.2075 8.61218 17.2351 8.6317C17.301 8.67795 17.4374 8.7413 17.4999 8.78702C17.5112 8.79545 17.4957 8.83155 17.5068 8.85226C17.5502 8.93304 17.6279 8.97404 17.6777 8.8589C17.7283 8.97075 17.8411 8.96234 17.9233 9.00616C18.0969 9.09906 18.3909 9.30598 18.5651 9.34789C18.675 9.37431 18.701 9.3248 18.8136 9.44706C18.8386 9.47419 18.8616 9.50445 18.892 9.53717C18.9633 9.61398 18.9904 9.7496 19.1194 9.68135C19.1991 9.76572 19.2872 9.7911 19.3046 9.92468C19.3259 9.90767 19.3473 9.89065 19.3686 9.87364C19.3807 9.88003 19.3928 9.88643 19.4049 9.89282C19.3963 9.91594 19.3876 9.93905 19.3789 9.96216C19.46 10.0175 19.6178 9.99448 19.6889 10.0372C19.728 10.0607 19.7854 10.0996 19.8483 10.1448L19.2936 10.2882C19.3859 10.1596 19.5039 10.0079 19.5678 9.94281C19.6184 9.89135 19.5754 9.86168 19.688 9.88148C19.6895 9.86422 19.691 9.84695 19.6926 9.82969C19.6773 9.80935 19.6621 9.78902 19.6469 9.76868C19.6916 9.69085 19.7771 9.61757 19.8201 9.54368C19.8986 9.40901 19.9618 9.17463 20.0777 9.06127C20.1068 9.03288 20.1734 9.01515 20.1924 8.98176C20.2202 8.93318 20.1579 8.88076 20.1927 8.81885C20.2527 8.71221 20.4486 8.5632 20.5011 8.45996C20.5168 8.42933 20.4992 8.40037 20.5085 8.37832C20.5471 8.2857 20.5907 8.2166 20.5993 8.11104C20.7175 8.06184 20.7985 8.11981 20.9008 8.14328C20.9782 8.16091 21.1664 8.18625 21.2288 8.21082C21.2726 8.22808 21.3102 8.28208 21.3595 8.29918C21.3325 8.4256 21.2675 8.44717 21.155 8.49645C21.0641 8.65638 20.9732 8.81632 20.8823 8.97625C20.8498 8.97649 20.8172 8.97673 20.7847 8.97697C20.7846 8.97694 20.7846 8.97691 20.7845 8.97688C20.7209 9.02138 20.7677 9.08369 20.7624 9.1248C20.712 9.51838 20.2423 10.0748 20.0234 10.4118C19.9962 10.4536 19.948 10.5582 19.8988 10.6447L19.7728 10.8928L19.4918 10.75C19.4282 10.7138 19.3744 10.6771 19.3625 10.6478C19.3552 10.6298 19.3734 10.5905 19.3603 10.5806C19.2214 10.5285 19.0825 10.4765 18.9436 10.4244C18.7187 10.2143 18.4231 10.1043 18.157 9.95951C17.4371 9.56793 16.7213 9.18568 16.0324 8.76795C15.9342 8.70833 15.8068 8.65324 15.6982 8.59016L15.3966 8.43691L15.5702 8.09515C15.5926 8.05662 15.616 8.02046 15.641 7.98882C15.6807 7.93839 15.7537 7.95065 15.7517 7.85249C15.7682 7.86119 15.7847 7.86989 15.8012 7.87859C15.8188 7.80434 15.806 7.74266 15.8437 7.67002C15.8756 7.60889 15.9657 7.45053 16.0027 7.40172C16.0218 7.37633 16.0458 7.40414 16.0606 7.3787C16.0857 7.33501 16.0988 7.21785 16.1341 7.15796C16.166 7.10371 16.2545 7.03261 16.274 6.98795C16.3447 6.82727 16.3899 6.63348 16.4979 6.48149C16.5278 6.43956 16.6002 6.4056 16.6073 6.39111C16.621 6.36273 16.5879 6.33241 16.5938 6.31138C16.6236 6.20462 16.7532 6.08721 16.8083 5.99779C16.8665 5.90329 16.9234 5.80556 16.98 5.70676C17.1246 5.45361 17.3315 5.22864 17.5724 5.07722C17.7684 4.94415 18.1275 4.80106 18.381 4.79808C18.381 4.79808 18.381 4.79808 18.381 4.79808C18.411 4.79683 18.4393 4.79694 18.4653 4.79825C18.5178 4.80127 18.507 4.85025 18.5494 4.84814C18.5961 4.84624 18.6216 4.81398 18.6442 4.81149C18.7979 4.78581 19.1543 4.8196 19.2805 4.91051C19.3048 4.92634 19.3096 4.96883 19.3248 4.97489C19.3324 4.97804 19.3599 4.96154 19.3853 4.96996C19.4581 4.9941 19.522 5.0236 19.5807 5.05698C19.6814 5.11386 19.7688 5.17551 19.8768 5.24603C20.1145 5.40101 20.4018 5.54033 20.6671 5.6963C20.7605 5.75121 20.8471 5.81568 20.923 5.88764C20.9973 5.95816 20.991 6.06016 21.0007 6.06882C21.0223 6.08925 21.0724 6.06857 21.1229 6.10805C21.274 6.2254 21.3713 6.45836 21.4462 6.63186C21.4462 6.63186 21.4462 6.63186 21.4462 6.63186C21.4561 6.65389 21.4658 6.67497 21.4759 6.6951C21.5207 6.78233 21.6169 6.90108 21.6466 7.00057C21.6736 7.0794 21.6606 7.27212 21.6864 7.3078C21.7033 7.32968 21.7575 7.34068 21.7636 7.36838ZM19.8833 6.01469C19.9372 5.94587 19.797 5.94683 19.8123 6.00979C19.8157 6.02397 19.8694 6.03256 19.8833 6.01469ZM16.2132 8.09737C16.2351 8.10898 16.2569 8.12059 16.2788 8.13219C16.278 8.11336 16.2771 8.09452 16.2763 8.07569C16.2589 8.07579 16.2416 8.07589 16.2243 8.07599C16.2206 8.08312 16.2169 8.09025 16.2132 8.09737Z" fill="white"/>
<path d="M11.3914 12.3682C11.4372 12.38 11.4814 12.4223 11.5107 12.4617C11.5199 12.474 11.5003 12.4932 11.506 12.5027C11.5173 12.5213 11.5392 12.5192 11.5493 12.5393C11.5526 12.5461 11.5246 12.5784 11.5285 12.5847C11.5501 12.6189 11.5849 12.627 11.6118 12.6532C11.7444 12.7824 11.8887 12.8857 12.0358 12.9945C12.0843 13.0304 12.1278 13.1003 12.1897 13.1174C12.1969 13.1193 12.2119 13.0854 12.2147 13.0835C12.2569 13.0544 12.2129 13.1148 12.22 13.1305C12.2485 13.1925 12.3003 13.227 12.354 13.2421C12.3768 13.2484 12.3942 13.1737 12.3932 13.2208C12.3932 13.224 12.3683 13.2548 12.3716 13.2615C12.3791 13.2769 12.406 13.2846 12.4139 13.2928C12.4291 13.3089 12.4323 13.3104 12.4495 13.321C12.4727 13.3358 12.491 13.3691 12.5209 13.3765C12.5274 13.378 12.5406 13.3392 12.5527 13.3384C12.5648 13.3376 12.586 13.354 12.5889 13.3668C12.5919 13.3795 12.5726 13.4047 12.5703 13.4117C12.5506 13.4709 12.62 13.4137 12.6245 13.4139C12.7047 13.4199 12.7337 13.4928 12.7922 13.5271C12.8366 13.553 12.8921 13.5673 12.9332 13.594C12.982 13.626 13.0136 13.6698 13.0643 13.6953C13.0697 13.6981 13.0876 13.6539 13.0941 13.6571C13.1638 13.6918 13.2276 13.7353 13.278 13.802C13.283 13.8087 13.2534 13.8393 13.2572 13.8482C13.2808 13.9016 13.3039 14.0101 13.4197 13.869C13.4437 13.8914 13.4736 13.9174 13.4799 13.9633C13.484 13.9929 13.4456 14.0226 13.475 14.0176C13.4816 14.0165 13.4959 13.9791 13.5043 13.98C13.5396 13.984 13.5635 14.013 13.6015 14.0117C13.6093 14.0113 13.6257 13.9799 13.6305 13.9754C13.6701 13.9388 13.6491 14.0254 13.6508 14.0336C13.6643 14.0952 13.7005 14.0955 13.7344 14.1167C13.7422 14.1217 13.7569 14.0751 13.7653 14.0784C13.8087 14.096 13.8479 14.1239 13.8763 14.1651C13.8825 14.1743 13.854 14.2045 13.8559 14.2107C13.8647 14.2377 13.9075 14.1742 13.9167 14.1987C13.9187 14.2038 13.899 14.2325 13.8977 14.2362C13.878 14.2939 13.9301 14.2263 13.9338 14.2263C13.9812 14.2245 13.9582 14.3137 13.9978 14.3225C14.0026 14.3234 14.0159 14.2803 14.028 14.2854C14.1085 14.3188 14.1811 14.3755 14.2369 14.4491C14.2456 14.4605 14.2207 14.4841 14.2194 14.488C14.1989 14.5496 14.2497 14.4808 14.255 14.4803C14.2962 14.4777 14.2875 14.5554 14.3589 14.4799C14.4658 14.5837 14.6188 14.6078 14.6965 14.7588C14.6975 14.7607 14.6734 14.7951 14.6756 14.7986C14.7014 14.8411 14.7272 14.7808 14.7926 14.7269C14.8091 14.7133 14.7795 14.8075 14.7776 14.8145C14.7706 14.8406 14.7325 14.8905 14.7321 14.896C14.7291 14.9401 14.8309 14.7609 14.8541 14.7744C14.8546 14.7752 14.8323 14.8061 14.8323 14.8105C14.8324 14.8242 14.846 14.8147 14.8452 14.8295C14.8434 14.8634 14.7974 14.9526 14.8475 14.9145C14.854 14.9095 14.9093 14.8064 14.9271 14.8233C14.9342 14.8301 14.9716 14.8498 14.9779 14.8623C14.9843 14.8749 14.9581 14.9032 14.958 14.905C14.9602 14.9641 14.9393 14.9758 14.9156 15.0474C14.8921 15.1188 14.9772 14.9656 14.9927 14.952C15.0083 14.9385 15.0075 14.9858 15.0052 15.001C15.0029 15.0163 14.9846 15.0333 14.9849 15.0428C14.9872 15.1055 15.0418 14.9754 15.0655 14.9571C15.1216 14.9136 15.0732 15.036 15.0875 15.0592C15.0913 15.0655 15.1018 15.0373 15.1082 15.0378C15.1333 15.0403 15.1246 15.0823 15.166 15.0635C15.1727 15.0604 15.2306 15.0038 15.2132 15.0602C15.2107 15.0683 15.1895 15.0934 15.1943 15.1046C15.2013 15.1214 15.2204 15.1408 15.2394 15.1395C15.2535 15.1385 15.2691 15.0857 15.2733 15.1074C15.2751 15.1171 15.2489 15.1379 15.2537 15.1538C15.2584 15.1697 15.2858 15.1842 15.2965 15.1893C15.3072 15.1943 15.3222 15.1562 15.3244 15.1543C15.3372 15.1438 15.3666 15.1384 15.3683 15.1395C15.4576 15.1863 15.5029 15.2922 15.5988 15.3225C15.6063 15.3249 15.6236 15.2855 15.6249 15.2855C15.6567 15.2835 15.5812 15.3707 15.5778 15.4128C15.6195 15.3368 15.6209 15.3558 15.6417 15.3571C15.6517 15.3576 15.6645 15.3262 15.667 15.3237C15.7043 15.2865 15.6788 15.3479 15.674 15.3607C15.6565 15.4078 15.6944 15.3623 15.6827 15.3938C15.6712 15.4251 15.6347 15.4601 15.6503 15.4686C15.6703 15.4444 15.7001 15.3679 15.7184 15.3634C15.7875 15.3465 15.8372 15.4496 15.8692 15.476C15.901 15.5025 15.9153 15.5043 15.9302 15.526C15.957 15.5653 15.9739 15.5055 16.0109 15.4954C16.0479 15.4852 15.9616 15.6061 15.9488 15.6355C15.9359 15.6648 15.9561 15.6387 15.9513 15.6561C15.9465 15.6735 15.9268 15.687 15.9329 15.6983C15.9391 15.7095 15.9938 15.6761 16.0141 15.6494C16.0569 15.5929 16.0827 15.5223 16.0947 15.5595C16.0954 15.5617 16.0709 15.5925 16.0745 15.5991C16.1033 15.6508 16.1481 15.6794 16.1786 15.7281C16.1827 15.7348 16.1554 15.7689 16.1576 15.7733C16.1801 15.8187 16.2041 15.7481 16.2653 15.6901C16.206 15.7804 16.1836 15.8438 16.2111 15.8607C16.2276 15.8709 16.2487 15.8286 16.2763 15.8064C16.2846 15.7997 16.2801 15.8345 16.2934 15.8167C16.3373 15.7585 16.3673 15.682 16.3796 15.7267C16.38 15.7288 16.3559 15.7606 16.359 15.7652C16.3791 15.7953 16.421 15.732 16.456 15.742C16.4834 15.7498 16.5023 15.8145 16.5256 15.837C16.4635 15.9411 16.5032 15.9323 16.556 15.8664C16.5718 15.8797 16.5932 15.8868 16.6044 15.9068C16.6082 15.9136 16.5866 15.9416 16.5854 15.9453C16.5665 16.0032 16.6154 15.9376 16.6208 15.9371C16.6777 15.9347 16.6799 16.0075 16.7498 15.9787C16.7523 15.9777 16.7973 15.9064 16.7766 15.9656C16.7751 15.9697 16.7427 15.995 16.7596 16.0085C16.7766 16.0219 16.7885 16.0813 16.834 16.0628C16.8449 16.0584 16.8954 16.0087 16.8808 16.0622C16.8788 16.0694 16.8647 16.0891 16.8603 16.1021C16.8464 16.1437 16.8939 16.0728 16.8664 16.1406C16.8389 16.2083 16.8306 16.2663 16.8818 16.2385C16.8833 16.2377 16.9237 16.1832 16.9313 16.1889C16.9434 16.1981 16.9547 16.2211 16.9685 16.2287C16.9751 16.2323 16.9922 16.1937 16.9937 16.1937C17.0493 16.1992 17.0614 16.2497 17.0999 16.2912C17.1069 16.2989 17.1605 16.2642 17.1542 16.3129C17.1473 16.3662 17.0242 16.5324 17.091 16.5149C17.1178 16.5079 17.2716 16.2956 17.2334 16.43C17.3093 16.4358 17.3286 16.5275 17.4119 16.5211C17.4156 16.5208 17.461 16.463 17.4667 16.4675C17.4752 16.4744 17.463 16.5067 17.4685 16.5125C17.491 16.5377 17.5311 16.5276 17.5556 16.5472C17.5649 16.5546 17.5435 16.5828 17.5546 16.5917C17.5657 16.6005 17.5973 16.5653 17.6023 16.5942C17.606 16.6162 17.5703 16.7052 17.5812 16.7243C17.6292 16.6442 17.6395 16.6525 17.6721 16.643C17.6784 16.6412 17.6908 16.6107 17.6946 16.6084C17.7105 16.5983 17.7037 16.6256 17.72 16.614C17.724 16.6113 17.7402 16.5838 17.7444 16.58C17.7802 16.5465 17.7634 16.6199 17.7604 16.6327C17.7492 16.6812 17.7763 16.649 17.7768 16.671C17.7772 16.6929 17.7505 16.7043 17.7563 16.7209C17.7684 16.7552 17.8018 16.7689 17.8254 16.7845C17.8349 16.7906 17.8499 16.75 17.8518 16.75C17.8773 16.7525 17.8746 16.8035 17.9288 16.737C17.8314 16.9342 17.9518 16.7258 17.9582 16.7805C17.9586 16.7849 17.9088 16.876 17.8924 16.884C17.876 16.892 17.8793 16.8563 17.8552 16.8697C17.8495 16.8728 17.7838 16.947 17.7786 16.9507C17.7378 16.9801 17.814 16.845 17.8174 16.8372C17.8536 16.7518 17.7805 16.8303 17.7715 16.8334C17.7306 16.8478 17.7213 16.817 17.6891 16.8256C17.6682 16.831 17.6154 16.9178 17.6066 16.909C17.5775 16.8799 17.6374 16.7508 17.5427 16.8376C17.5224 16.856 17.473 16.9558 17.4924 16.8659C17.4937 16.8602 17.5157 16.7805 17.4794 16.8178C17.4749 16.8225 17.4585 16.8504 17.4553 16.8517C17.4346 16.8599 17.4398 16.833 17.4206 16.836C17.4014 16.8391 17.3766 16.8458 17.3674 16.8277C17.3619 16.8168 17.3811 16.7581 17.3843 16.7429C17.3939 16.6992 17.3457 16.7517 17.3644 16.703C17.3831 16.654 17.4377 16.5949 17.435 16.5545C17.3916 16.6265 17.3461 16.6999 17.302 16.772C17.2605 16.7441 17.2319 16.6957 17.1868 16.6735C17.1811 16.6708 17.1637 16.7129 17.1571 16.7111C17.1292 16.703 17.1244 16.6628 17.0927 16.659C17.0682 16.6563 17.0225 16.6849 16.9961 16.6833C17.0325 16.5931 16.9857 16.6035 16.9683 16.583C16.9621 16.5759 16.9757 16.554 16.9745 16.5436C16.9696 16.5047 16.9361 16.5837 16.9237 16.5919C16.8704 16.6268 16.966 16.4598 16.935 16.4471C16.9334 16.4463 16.8629 16.5238 16.8571 16.5278C16.8197 16.5541 16.8725 16.4955 16.8662 16.483C16.8547 16.4601 16.8543 16.4314 16.8174 16.4445C16.8065 16.4485 16.7589 16.4946 16.7717 16.4448C16.7734 16.4382 16.7914 16.4096 16.7912 16.4071C16.7844 16.3647 16.7297 16.4561 16.6979 16.4792C16.6662 16.5024 16.6827 16.4268 16.6892 16.406C16.706 16.3523 16.7096 16.3908 16.7129 16.3866C16.7524 16.3355 16.7317 16.3361 16.7228 16.3246C16.7742 16.2336 16.7548 16.2295 16.7135 16.3131C16.709 16.3222 16.7229 16.3191 16.7228 16.3246C16.6607 16.4069 16.6362 16.4077 16.6651 16.3136C16.6787 16.2695 16.7139 16.2296 16.6762 16.2296C16.6592 16.2296 16.6276 16.2944 16.6064 16.3047C16.5581 16.3282 16.5589 16.2508 16.5271 16.2443C16.5156 16.242 16.505 16.2814 16.4964 16.281C16.4736 16.28 16.4733 16.2455 16.4481 16.2482C16.4458 16.2485 16.4288 16.2863 16.4231 16.2836C16.3795 16.2635 16.3571 16.2196 16.3145 16.1937C16.2939 16.1812 16.2453 16.1789 16.2261 16.1623C16.1928 16.1338 16.1773 16.0551 16.1381 16.0489C16.1126 16.0447 16.0963 16.0829 16.0731 16.1019C16.0283 16.1387 16.0474 16.0368 16.051 16.0214C16.0511 16.0208 16.0739 16.023 16.0751 15.9992C16.092 15.9579 16.0513 16.0213 16.051 16.0214C16.0533 16.0114 16.0223 15.9823 16.0113 15.9849C16.0052 15.9863 15.9876 16.0213 15.9848 16.0214C15.9193 16.0234 15.8665 16.0038 15.8274 15.9595C15.8269 15.9584 15.8504 15.9215 15.849 15.9192C15.8309 15.8859 15.7858 15.9214 15.7466 15.9351C15.7074 15.9488 15.6945 15.9289 15.7189 15.8562C15.6966 15.8541 15.6885 15.8108 15.6843 15.785C15.6801 15.7592 15.6349 15.8313 15.6328 15.832C15.566 15.8551 15.5679 15.7997 15.5308 15.769C15.5132 15.7543 15.4683 15.7422 15.4425 15.7378C15.422 15.7344 15.4221 15.7113 15.4002 15.7133C15.3973 15.7135 15.3802 15.7474 15.3788 15.7482C15.3387 15.7772 15.3939 15.7023 15.3987 15.686C15.4164 15.6266 15.4247 15.5944 15.3884 15.6058C15.3801 15.6084 15.2977 15.7145 15.2845 15.7158C15.2675 15.7172 15.2963 15.6788 15.2778 15.6813C15.2763 15.6815 15.2615 15.707 15.2544 15.7013C15.2213 15.6753 15.1908 15.6374 15.1519 15.6179C15.1466 15.6151 15.1294 15.6593 15.1214 15.6559C15.084 15.6403 15.0469 15.6165 15.0242 15.5777C15.0187 15.5681 15.0406 15.5429 15.0437 15.5335C15.0625 15.4763 15.0034 15.5407 15 15.5406C14.9174 15.5395 14.9093 15.4451 14.8276 15.4397C14.8231 15.4395 14.7502 15.5029 14.7783 15.4283C14.7802 15.4233 14.8093 15.3472 14.7711 15.3885C14.7687 15.3911 14.755 15.431 14.7445 15.4199C14.734 15.4088 14.6995 15.4206 14.7052 15.3712C14.707 15.3556 14.7346 15.2789 14.6857 15.3242C14.6824 15.3274 14.5837 15.437 14.6252 15.3457C14.6321 15.3307 14.6872 15.2408 14.6401 15.2758C14.631 15.2826 14.6259 15.3069 14.6085 15.3137C14.5819 15.3243 14.5762 15.2882 14.5337 15.3177C14.5263 15.323 14.4761 15.3765 14.4926 15.3232C14.4952 15.3148 14.5164 15.2864 14.5125 15.2796C14.4943 15.2469 14.4532 15.25 14.4373 15.2124C14.4317 15.1991 14.4657 15.1531 14.463 15.1338C14.4603 15.1145 14.4467 15.0895 14.4226 15.1055C14.3985 15.1215 14.3644 15.2067 14.3443 15.2033C14.2572 15.1886 14.2138 15.1012 14.1467 15.0527C14.1368 15.0455 14.129 15.0786 14.1132 15.07C14.0548 15.0384 13.9405 15.0065 13.9259 14.9178C13.9142 14.8467 13.9856 14.84 13.9666 14.8027C13.9574 14.7848 13.888 14.8663 13.8827 14.8671C13.831 14.8758 13.8307 14.8214 13.7923 14.8154C13.7844 14.8142 13.769 14.8547 13.7624 14.8533C13.74 14.8487 13.73 14.8207 13.7104 14.8131C13.7015 14.8099 13.6864 14.8389 13.6804 14.8324C13.6656 14.8171 13.6569 14.7961 13.6553 14.7596C13.6551 14.7562 13.6863 14.7275 13.674 14.7185C13.6541 14.704 13.6432 14.6626 13.6031 14.6751C13.5911 14.679 13.5529 14.7431 13.5636 14.6896C13.5658 14.6784 13.6154 14.6036 13.5581 14.6597C13.5485 14.669 13.4652 14.7411 13.4845 14.6743C13.4895 14.6567 13.5167 14.5877 13.5022 14.5925C13.5001 14.5934 13.4845 14.6307 13.4753 14.6298C13.4433 14.6262 13.419 14.6069 13.3866 14.6024C13.3779 14.6012 13.3672 14.6431 13.3549 14.6402C13.3211 14.6325 13.2909 14.6024 13.2696 14.5749C13.2619 14.5646 13.2864 14.5392 13.2875 14.5355C13.3064 14.476 13.2576 14.5426 13.2512 14.5444C13.2119 14.5545 13.2126 14.5101 13.1845 14.5055C13.1768 14.5041 13.1614 14.5404 13.1584 14.5427C13.1281 14.5644 13.1735 14.5096 13.1692 14.498C13.1572 14.4655 13.1299 14.4531 13.104 14.4436C13.0944 14.4402 13.081 14.485 13.0728 14.4815C13.0232 14.4614 12.9781 14.4297 12.9463 14.382C12.9404 14.3729 12.9634 14.3459 12.9657 14.338C12.982 14.2828 12.9257 14.3381 12.918 14.3419C12.8827 14.3596 12.8912 14.3288 12.872 14.3242C12.7779 14.302 12.6901 14.2266 12.6214 14.1714C12.5318 14.0998 12.4728 14.0264 12.3751 13.9789C12.3689 13.9758 12.3513 14.0194 12.3456 14.0173C12.2739 13.9881 12.2182 13.9341 12.1452 13.9068C12.1393 13.9044 12.1247 13.947 12.1144 13.9446C12.0932 13.9398 12.0718 13.9244 12.0608 13.9017C12.0555 13.8906 12.0865 13.865 12.0807 13.8546C12.0672 13.8302 12.0467 13.8145 12.0219 13.808C12.0113 13.8054 12.002 13.8523 11.99 13.8458C11.9078 13.8026 11.8254 13.763 11.7743 13.6652C11.7708 13.6584 11.8124 13.5766 11.7917 13.5848C11.7779 13.6062 11.7628 13.632 11.7486 13.6552C11.6248 13.5993 11.5258 13.5041 11.4116 13.4312C11.4068 13.4281 11.3906 13.4749 11.3812 13.4692C11.3264 13.4361 11.2661 13.4162 11.2342 13.3414C11.231 13.334 11.2772 13.2621 11.2542 13.2635C11.25 13.2639 11.2194 13.2591 11.2036 13.2712C11.2013 13.2731 11.1856 13.3102 11.177 13.3064C11.1275 13.2843 11.0833 13.2477 11.0493 13.1994C11.0438 13.1915 11.0734 13.1597 11.0697 13.1537C11.0432 13.112 10.9857 13.1156 10.9691 13.0611C10.9581 13.0245 11.0043 12.9665 11.0281 12.8967C11.0314 12.8868 11.0172 12.8766 11.0378 12.8399C11.0894 12.7477 11.1554 12.6523 11.2096 12.5535C11.2213 12.5322 11.188 12.5429 11.2296 12.4994C11.2324 12.4965 11.2569 12.4883 11.2705 12.4732C11.28 12.4629 11.2972 12.4234 11.3112 12.4112C11.3253 12.3991 11.3127 12.4332 11.3316 12.4204C11.3507 12.4073 11.3716 12.3632 11.3914 12.3682ZM15.6651 15.6694C15.6725 15.6263 15.5946 15.754 15.6272 15.7317C15.6289 15.7305 15.6648 15.6715 15.6651 15.6694ZM17.2894 16.5987C17.3054 16.5316 17.2443 16.6081 17.2307 16.6593C17.2172 16.7103 17.2845 16.619 17.2894 16.5987ZM17.4945 16.6636C17.5005 16.6068 17.3897 16.7876 17.4332 16.7635C17.4357 16.7622 17.4941 16.6669 17.4945 16.6636ZM11.0982 12.9141C11.099 12.9123 11.0892 12.9043 11.0879 12.9058C11.0581 12.9434 11.0777 12.9594 11.0982 12.9141ZM17.7003 16.724C17.7085 16.6955 17.6734 16.7133 17.6632 16.7487C17.655 16.7771 17.6901 16.7594 17.7003 16.724ZM15.051 15.1224C15.0519 15.1204 15.0452 15.1141 15.039 15.125C15.0189 15.1603 15.0354 15.1568 15.051 15.1224ZM18.0063 16.9013C17.9653 16.868 18.0269 16.7009 18.0659 16.7468C18.073 16.7552 18.0184 16.7837 18.0217 16.804C18.0278 16.8409 18.0973 16.7543 18.0885 16.8175C18.0868 16.829 18.0084 16.9036 18.0061 16.9015C18.0061 16.9015 18.0062 16.9014 18.0063 16.9013ZM15.7486 15.5101C15.7493 15.5082 15.7396 15.5003 15.7383 15.5018C15.7084 15.5393 15.7281 15.5553 15.7486 15.5101ZM14.6471 14.7772C14.6487 14.7732 14.6258 14.7552 14.6231 14.7581C14.5707 14.8174 14.6167 14.854 14.6471 14.7772ZM16.5244 15.84C16.5603 15.8057 16.5771 15.8091 16.556 15.8663C16.546 15.8567 16.5346 15.8494 16.5244 15.84Z" fill="white"/>
<path d="M10.4506 13.9654C10.4964 13.9772 10.5406 14.0194 10.5699 14.0589C10.5791 14.0712 10.5595 14.0904 10.5652 14.0999C10.5765 14.1185 10.5985 14.1163 10.6085 14.1365C10.6118 14.1433 10.5838 14.1755 10.5877 14.1818C10.6093 14.2161 10.6441 14.2242 10.671 14.2504C10.8036 14.3796 10.9479 14.4829 11.095 14.5917C11.1435 14.6276 11.187 14.6974 11.2489 14.7145C11.2561 14.7165 11.2711 14.6825 11.2739 14.6806C11.3161 14.6515 11.2721 14.712 11.2792 14.7276C11.3077 14.7897 11.3595 14.8242 11.4132 14.8392C11.436 14.8456 11.4534 14.7708 11.4524 14.818C11.4524 14.8212 11.4275 14.8519 11.4308 14.8587C11.4383 14.874 11.4652 14.8817 11.4731 14.89C11.4883 14.9061 11.4915 14.9076 11.5087 14.9182C11.5319 14.9329 11.5502 14.9663 11.5801 14.9737C11.5866 14.9751 11.5998 14.9363 11.6119 14.9355C11.624 14.9348 11.6452 14.9512 11.6482 14.9639C11.6511 14.9766 11.6318 15.0019 11.6295 15.0089C11.6098 15.0681 11.6792 15.0109 11.6837 15.0111C11.764 15.0171 11.7929 15.09 11.8514 15.1243C11.8958 15.1502 11.9513 15.1644 11.9924 15.1912C12.0412 15.2231 12.0728 15.267 12.1235 15.2925C12.1289 15.2952 12.1468 15.2511 12.1533 15.2543C12.223 15.289 12.2868 15.3325 12.3372 15.3992C12.3422 15.4059 12.3126 15.4365 12.3164 15.4453C12.34 15.4987 12.3631 15.6072 12.4789 15.4662C12.5029 15.4885 12.5328 15.5146 12.5392 15.5605C12.5432 15.59 12.5048 15.6198 12.5342 15.6147C12.5408 15.6136 12.5551 15.5762 12.5635 15.5772C12.5988 15.5811 12.6227 15.6102 12.6607 15.6088C12.6685 15.6085 12.6849 15.5771 12.6897 15.5725C12.7293 15.5359 12.7083 15.6226 12.71 15.6308C12.7235 15.6924 12.7597 15.6926 12.7936 15.7139C12.8014 15.7188 12.8161 15.6723 12.8245 15.6756C12.8679 15.6932 12.9071 15.7211 12.9355 15.7622C12.9417 15.7715 12.9132 15.8017 12.9151 15.8079C12.9239 15.8349 12.9667 15.7713 12.9759 15.7959C12.9779 15.801 12.9582 15.8297 12.957 15.8333C12.9372 15.8911 12.9893 15.8235 12.993 15.8235C13.0404 15.8217 13.0174 15.9108 13.057 15.9196C13.0618 15.9206 13.0751 15.8775 13.0872 15.8826C13.1677 15.9159 13.2403 15.9727 13.2961 16.0463C13.3048 16.0577 13.2799 16.0813 13.2786 16.0852C13.2581 16.1468 13.3089 16.078 13.3142 16.0774C13.3554 16.0749 13.3467 16.1526 13.4181 16.0771C13.525 16.1808 13.678 16.2049 13.7557 16.356C13.7567 16.3578 13.7326 16.3923 13.7348 16.3958C13.7607 16.4383 13.7864 16.3779 13.8519 16.324C13.8683 16.3105 13.8387 16.4046 13.8368 16.4117C13.8298 16.4377 13.7917 16.4876 13.7913 16.4932C13.7883 16.5373 13.8901 16.3581 13.9133 16.3716C13.9138 16.3723 13.8915 16.4032 13.8915 16.4076C13.8916 16.4214 13.9052 16.4119 13.9044 16.4266C13.9026 16.4606 13.8566 16.5497 13.9067 16.5116C13.9132 16.5066 13.9685 16.4036 13.9863 16.4205C13.9934 16.4273 14.0308 16.447 14.0371 16.4595C14.0435 16.472 14.0174 16.5004 14.0173 16.5022C14.0194 16.5613 13.9985 16.573 13.9748 16.6446C13.9513 16.716 14.0364 16.5628 14.0519 16.5492C14.0675 16.5357 14.0667 16.583 14.0644 16.5982C14.0621 16.6134 14.0438 16.6304 14.0441 16.64C14.0464 16.7027 14.101 16.5726 14.1247 16.5542C14.1808 16.5108 14.1324 16.6332 14.1467 16.6564C14.1505 16.6626 14.161 16.6344 14.1674 16.635C14.1925 16.6375 14.1838 16.6795 14.2252 16.6607C14.2319 16.6576 14.2898 16.601 14.2724 16.6573C14.2699 16.6654 14.2487 16.6905 14.2535 16.7018C14.2605 16.7186 14.2796 16.738 14.2986 16.7367C14.3127 16.7356 14.3283 16.6829 14.3325 16.7046C14.3343 16.7143 14.3081 16.7351 14.3129 16.751C14.3176 16.7669 14.345 16.7814 14.3557 16.7865C14.3664 16.7915 14.3814 16.7533 14.3836 16.7515C14.3965 16.7409 14.4258 16.7356 14.4275 16.7366C14.5168 16.7835 14.5621 16.8894 14.658 16.9197C14.6655 16.9221 14.6828 16.8827 14.6841 16.8827C14.7159 16.8806 14.6404 16.9679 14.637 17.01C14.6787 16.934 14.6801 16.953 14.7009 16.9542C14.7109 16.9548 14.7238 16.9234 14.7262 16.9208C14.7635 16.8837 14.738 16.9451 14.7332 16.9579C14.7157 17.005 14.7536 16.9594 14.742 16.991C14.7304 17.0223 14.6939 17.0573 14.7095 17.0658C14.7295 17.0416 14.7593 16.9651 14.7776 16.9606C14.8467 16.9437 14.8964 17.0467 14.9284 17.0732C14.9602 17.0997 14.9745 17.1014 14.9894 17.1232C15.0162 17.1625 15.0331 17.1027 15.0701 17.0925C15.1072 17.0824 15.0208 17.2033 15.008 17.2326C14.9952 17.2619 15.0153 17.2358 15.0105 17.2533C15.0057 17.2707 14.986 17.2842 14.9921 17.2954C14.9983 17.3067 15.053 17.2733 15.0733 17.2466C15.1161 17.1901 15.1419 17.1195 15.1539 17.1567C15.1546 17.1589 15.1301 17.1896 15.1337 17.1963C15.1625 17.248 15.2073 17.2765 15.2378 17.3252C15.2419 17.332 15.2146 17.3661 15.2168 17.3704C15.2393 17.4159 15.2633 17.3453 15.3245 17.2873C15.2652 17.3776 15.2429 17.441 15.2703 17.4579C15.2868 17.4681 15.3079 17.4258 15.3355 17.4036C15.3438 17.3968 15.3393 17.4317 15.3526 17.4139C15.3965 17.3556 15.4265 17.2792 15.4388 17.3239C15.4392 17.326 15.4151 17.3578 15.4182 17.3624C15.4384 17.3925 15.4802 17.3292 15.5152 17.3392C15.5426 17.347 15.5615 17.4117 15.5848 17.4342C15.5227 17.5383 15.5624 17.5295 15.6152 17.4635C15.631 17.4768 15.6524 17.484 15.6636 17.5039C15.6674 17.5108 15.6458 17.5388 15.6446 17.5425C15.6257 17.6004 15.6746 17.5348 15.68 17.5343C15.7369 17.5318 15.7391 17.6047 15.809 17.5759C15.8115 17.5748 15.8565 17.5036 15.8358 17.5628C15.8343 17.5668 15.8019 17.5922 15.8188 17.6056C15.8358 17.6191 15.8477 17.6785 15.8932 17.66C15.9042 17.6555 15.9546 17.6059 15.94 17.6593C15.938 17.6666 15.9239 17.6863 15.9195 17.6993C15.9056 17.7408 15.9531 17.67 15.9256 17.7377C15.8981 17.8055 15.8898 17.8634 15.941 17.8357C15.9425 17.8349 15.9829 17.7804 15.9905 17.7861C16.0026 17.7952 16.0139 17.8182 16.0277 17.8258C16.0343 17.8294 16.0514 17.7909 16.0529 17.7909C16.1085 17.7964 16.1206 17.8469 16.1591 17.8884C16.1661 17.8961 16.2198 17.8613 16.2134 17.91C16.2065 17.9634 16.0834 18.1296 16.1502 18.112C16.177 18.1051 16.3309 17.8928 16.2926 18.0272C16.3685 18.033 16.3878 18.1247 16.4711 18.1183C16.4748 18.118 16.5202 18.0602 16.5259 18.0647C16.5344 18.0716 16.5222 18.1039 16.5277 18.1097C16.5502 18.1349 16.5904 18.1247 16.6148 18.1444C16.6241 18.1518 16.6027 18.18 16.6138 18.1888C16.6249 18.1976 16.6565 18.1624 16.6615 18.1914C16.6652 18.2134 16.6295 18.3023 16.6404 18.3215C16.6884 18.2414 16.6987 18.2497 16.7313 18.2402C16.7376 18.2384 16.75 18.2079 16.7538 18.2056C16.7697 18.1955 16.7629 18.2228 16.7792 18.2112C16.7832 18.2084 16.7995 18.181 16.8036 18.1772C16.8394 18.1437 16.8226 18.2171 16.8196 18.2299C16.8084 18.2784 16.8355 18.2462 16.836 18.2681C16.8364 18.2901 16.8097 18.3015 16.8155 18.3181C16.8276 18.3524 16.861 18.3661 16.8846 18.3817C16.8941 18.3878 16.9091 18.3471 16.911 18.3472C16.9365 18.3497 16.9338 18.4007 16.988 18.3341C16.8906 18.5314 17.011 18.3229 17.0174 18.3777C17.0178 18.3821 16.968 18.4732 16.9516 18.4812C16.9352 18.4892 16.9385 18.4535 16.9144 18.4669C16.9087 18.47 16.8431 18.5441 16.8378 18.5479C16.797 18.5773 16.8732 18.4422 16.8766 18.4343C16.9128 18.349 16.8397 18.4275 16.8307 18.4306C16.7899 18.445 16.7805 18.4142 16.7483 18.4227C16.7274 18.4282 16.6746 18.5149 16.6658 18.5062C16.6367 18.4771 16.6966 18.3479 16.6019 18.4347C16.5817 18.4532 16.5322 18.5529 16.5516 18.4631C16.5529 18.4574 16.5749 18.3777 16.5386 18.415C16.5341 18.4197 16.5177 18.4476 16.5145 18.4489C16.4938 18.457 16.499 18.4302 16.4798 18.4332C16.4606 18.4363 16.4358 18.443 16.4266 18.4248C16.4211 18.414 16.4403 18.3553 16.4435 18.3401C16.4531 18.2964 16.4049 18.3489 16.4236 18.3001C16.4423 18.2511 16.4969 18.1921 16.4942 18.1517C16.4508 18.2237 16.4053 18.297 16.3612 18.3692C16.3197 18.3413 16.2911 18.2929 16.246 18.2706C16.2404 18.2679 16.2229 18.3101 16.2163 18.3082C16.1884 18.3002 16.1836 18.2599 16.1519 18.2562C16.1274 18.2534 16.0817 18.2821 16.0553 18.2805C16.0917 18.1903 16.0449 18.2007 16.0275 18.1802C16.0213 18.173 16.0349 18.1512 16.0337 18.1408C16.0288 18.1019 15.9953 18.1808 15.9829 18.189C15.9297 18.224 16.0252 18.057 15.9942 18.0442C15.9926 18.0435 15.9221 18.121 15.9163 18.125C15.8789 18.1513 15.9317 18.0926 15.9254 18.0801C15.9139 18.0573 15.9135 18.0286 15.8766 18.0417C15.8657 18.0456 15.8181 18.0918 15.8309 18.0419C15.8326 18.0354 15.8507 18.0067 15.8504 18.0042C15.8436 17.9619 15.7889 18.0533 15.7571 18.0764C15.7254 18.0996 15.7419 18.024 15.7484 18.0032C15.7652 17.9494 15.7688 17.988 15.7721 17.9837C15.8117 17.9327 15.7909 17.9333 15.782 17.9218C15.8334 17.8308 15.814 17.8267 15.7727 17.9102C15.7682 17.9194 15.7821 17.9163 15.782 17.9218C15.7199 18.0041 15.6954 18.0049 15.7243 17.9108C15.7379 17.8667 15.7731 17.8267 15.7354 17.8268C15.7184 17.8267 15.6868 17.8916 15.6656 17.9019C15.6173 17.9253 15.6181 17.8479 15.5863 17.8415C15.5748 17.8392 15.5642 17.8786 15.5556 17.8782C15.5328 17.8771 15.5325 17.8426 15.5073 17.8454C15.505 17.8457 15.488 17.8835 15.4823 17.8807C15.4387 17.8606 15.4163 17.8168 15.3737 17.7909C15.3531 17.7784 15.3045 17.7761 15.2853 17.7595C15.252 17.7309 15.2365 17.6523 15.1973 17.6461C15.1718 17.6419 15.1555 17.6801 15.1323 17.6991C15.0875 17.7358 15.1067 17.6339 15.1102 17.6185C15.1103 17.618 15.1331 17.6202 15.1344 17.5963C15.1512 17.5551 15.1105 17.6185 15.1102 17.6185C15.1125 17.6085 15.0815 17.5795 15.0705 17.5821C15.0644 17.5835 15.0468 17.6184 15.044 17.6185C14.9785 17.6205 14.9257 17.6009 14.8866 17.5567C14.8861 17.5555 14.9096 17.5186 14.9082 17.5163C14.8901 17.4831 14.845 17.5186 14.8058 17.5323C14.7666 17.546 14.7537 17.5261 14.7781 17.4534C14.7558 17.4513 14.7477 17.408 14.7435 17.3822C14.7393 17.3564 14.6941 17.4284 14.692 17.4291C14.6252 17.4522 14.6271 17.3969 14.59 17.3662C14.5724 17.3515 14.5275 17.3394 14.5017 17.3349C14.4812 17.3316 14.4813 17.3085 14.4594 17.3104C14.4565 17.3107 14.4394 17.3445 14.438 17.3454C14.3979 17.3743 14.4531 17.2995 14.4579 17.2831C14.4756 17.2238 14.4839 17.1915 14.4476 17.203C14.4393 17.2056 14.3569 17.3117 14.3437 17.313C14.3267 17.3144 14.3555 17.2759 14.337 17.2785C14.3355 17.2787 14.3207 17.3042 14.3136 17.2985C14.2805 17.2724 14.25 17.2346 14.2111 17.2151C14.2058 17.2123 14.1886 17.2564 14.1806 17.2531C14.1432 17.2375 14.1061 17.2136 14.0835 17.1749C14.078 17.1652 14.0998 17.1401 14.1029 17.1307C14.1217 17.0735 14.0626 17.1379 14.0592 17.1377C13.9766 17.1367 13.9685 17.0422 13.8868 17.0369C13.8823 17.0367 13.8095 17.1001 13.8375 17.0254C13.8394 17.0205 13.8685 16.9444 13.8303 16.9856C13.828 16.9882 13.8142 17.0281 13.8037 17.0171C13.7932 17.006 13.7588 17.0178 13.7644 16.9683C13.7662 16.9528 13.7938 16.876 13.7449 16.9214C13.7416 16.9246 13.6429 17.0341 13.6844 16.9429C13.6913 16.9279 13.7464 16.8379 13.6993 16.873C13.6902 16.8798 13.6851 16.9041 13.6677 16.9109C13.6411 16.9215 13.6354 16.8854 13.5929 16.9149C13.5855 16.9201 13.5353 16.9737 13.5518 16.9203C13.5544 16.912 13.5756 16.8836 13.5717 16.8767C13.5535 16.8441 13.5124 16.8472 13.4965 16.8096C13.4909 16.7963 13.5249 16.7503 13.5222 16.731C13.5195 16.7117 13.5059 16.6867 13.4818 16.7027C13.4577 16.7186 13.4236 16.8039 13.4035 16.8005C13.3164 16.7858 13.273 16.6984 13.2059 16.6499C13.196 16.6427 13.1882 16.6758 13.1724 16.6672C13.114 16.6356 12.9997 16.6036 12.9851 16.5149C12.9734 16.4439 13.0448 16.4371 13.0258 16.3998C13.0166 16.382 12.9472 16.4635 12.9419 16.4643C12.8902 16.473 12.8899 16.4186 12.8515 16.4126C12.8436 16.4114 12.8282 16.4519 12.8216 16.4505C12.7992 16.4458 12.7892 16.4178 12.7696 16.4103C12.7607 16.407 12.7457 16.436 12.7396 16.4295C12.7248 16.4143 12.7162 16.3932 12.7145 16.3567C12.7143 16.3534 12.7455 16.3246 12.7332 16.3156C12.7133 16.3012 12.7024 16.2597 12.6623 16.2723C12.6503 16.2761 12.6121 16.3403 12.6228 16.2867C12.625 16.2755 12.6746 16.2008 12.6173 16.2568C12.6077 16.2661 12.5244 16.3383 12.5437 16.2715C12.5487 16.2539 12.5759 16.1848 12.5614 16.1896C12.5593 16.1905 12.5437 16.2279 12.5345 16.227C12.5025 16.2233 12.4782 16.204 12.4458 16.1995C12.4371 16.1984 12.4264 16.2402 12.4141 16.2374C12.3803 16.2297 12.3501 16.1996 12.3289 16.172C12.3211 16.1618 12.3456 16.1364 12.3467 16.1327C12.3656 16.0732 12.3168 16.1398 12.3104 16.1415C12.2711 16.1516 12.2718 16.1073 12.2437 16.1026C12.236 16.1012 12.2207 16.1376 12.2176 16.1399C12.1873 16.1616 12.2327 16.1067 12.2284 16.0952C12.2164 16.0627 12.1891 16.0502 12.1632 16.0408C12.1536 16.0374 12.1402 16.0822 12.132 16.0786C12.0824 16.0586 12.0373 16.0269 12.0055 15.9792C11.9996 15.9701 12.0226 15.9431 12.0249 15.9352C12.0412 15.88 11.9849 15.9352 11.9772 15.9391C11.9419 15.9568 11.9504 15.9259 11.9312 15.9213C11.8371 15.8992 11.7493 15.8237 11.6806 15.7686C11.591 15.6969 11.532 15.6236 11.4343 15.5761C11.4281 15.573 11.4105 15.6166 11.4048 15.6145C11.3331 15.5852 11.2774 15.5313 11.2044 15.5039C11.1985 15.5016 11.1839 15.5442 11.1737 15.5418C11.1524 15.537 11.131 15.5216 11.12 15.4988C11.1147 15.4878 11.1457 15.4622 11.1399 15.4517C11.1264 15.4274 11.1059 15.4116 11.0811 15.4052C11.0705 15.4026 11.0612 15.4494 11.0492 15.443C10.967 15.3998 10.8846 15.3602 10.8335 15.2623C10.83 15.2556 10.8716 15.1738 10.8509 15.182C10.8371 15.2034 10.822 15.2292 10.8078 15.2524C10.684 15.1965 10.585 15.1013 10.4708 15.0283C10.466 15.0253 10.4498 15.0721 10.4404 15.0664C10.3856 15.0333 10.3253 15.0133 10.2934 14.9386C10.2902 14.9312 10.3364 14.8593 10.3134 14.8607C10.3093 14.861 10.2786 14.8562 10.2628 14.8684C10.2605 14.8703 10.2448 14.9073 10.2362 14.9036C10.1867 14.8814 10.1426 14.8449 10.1085 14.7966C10.103 14.7887 10.1326 14.7568 10.1289 14.7509C10.1024 14.7092 10.0449 14.7128 10.0283 14.6582C10.0173 14.6216 10.0635 14.5637 10.0873 14.4939C10.0906 14.484 10.0764 14.4738 10.097 14.4371C10.1486 14.3449 10.2146 14.2494 10.2688 14.1506C10.2805 14.1294 10.2472 14.14 10.2888 14.0965C10.2916 14.0936 10.3161 14.0854 10.3297 14.0704C10.3392 14.06 10.3564 14.0206 10.3704 14.0084C10.3845 13.9962 10.3719 14.0304 10.3908 14.0176C10.4099 14.0045 10.4308 13.9604 10.4506 13.9654ZM14.7243 17.2665C14.7317 17.2235 14.6538 17.3512 14.6864 17.3289C14.6881 17.3276 14.724 17.2687 14.7243 17.2665ZM16.3486 18.1958C16.3646 18.1287 16.3035 18.2053 16.2899 18.2564C16.2764 18.3075 16.3437 18.2162 16.3486 18.1958ZM16.5537 18.2607C16.5597 18.2039 16.4489 18.3848 16.4924 18.3607C16.4949 18.3593 16.5533 18.264 16.5537 18.2607ZM10.1574 14.5113C10.1582 14.5094 10.1484 14.5014 10.1471 14.503C10.1173 14.5405 10.1369 14.5565 10.1574 14.5113ZM16.7595 18.3212C16.7677 18.2927 16.7326 18.3105 16.7224 18.3458C16.7142 18.3743 16.7493 18.3566 16.7595 18.3212ZM14.1102 16.7196C14.1111 16.7175 14.1044 16.7113 14.0982 16.7222C14.0781 16.7575 14.0947 16.7539 14.1102 16.7196ZM17.0655 18.4985C17.0245 18.4651 17.0861 18.2981 17.1251 18.344C17.1322 18.3523 17.0776 18.3809 17.0809 18.4011C17.087 18.4381 17.1565 18.3514 17.1477 18.4146C17.146 18.4262 17.0676 18.5008 17.0653 18.4987C17.0653 18.4986 17.0654 18.4986 17.0655 18.4985ZM14.8078 17.1072C14.8085 17.1054 14.7988 17.0975 14.7975 17.099C14.7677 17.1365 14.7873 17.1525 14.8078 17.1072ZM13.7063 16.3744C13.7079 16.3704 13.685 16.3524 13.6823 16.3553C13.6299 16.4145 13.6759 16.4511 13.7063 16.3744ZM15.5836 17.4372C15.6195 17.4029 15.6363 17.4063 15.6152 17.4634C15.6052 17.4539 15.5938 17.4466 15.5836 17.4372Z" fill="white"/>
<path d="M6.26212 12.4508C6.26072 12.4614 6.24354 12.4651 6.22976 12.4707C6.22329 12.4735 6.21755 12.4767 6.21446 12.4813C6.17342 12.5409 6.14229 12.5527 6.10033 12.6035C6.03809 12.6788 5.93325 12.9538 5.75116 12.8365C5.75116 12.8365 5.75115 12.8365 5.75115 12.8365C5.74936 12.8353 5.74757 12.8341 5.74577 12.8329C5.71157 12.8097 5.68554 12.7638 5.64807 12.7353C5.61058 12.7068 5.35589 12.5459 5.35847 12.5062C5.3641 12.4498 5.48759 12.3855 5.49772 12.36C5.50464 12.3426 5.49256 12.3079 5.49984 12.2846C5.52334 12.2095 5.55937 12.1855 5.52985 12.0852C5.56088 12.0834 5.59191 12.0816 5.62295 12.0797C5.63818 12.0787 5.65342 12.0776 5.66864 12.0766C5.67096 12.0349 5.7411 12.0152 5.74947 11.9945C5.75634 11.9775 5.73563 11.9512 5.74369 11.934C5.7526 11.9146 5.79648 11.905 5.8113 11.8689C5.83577 11.8099 5.77433 11.7548 5.78488 11.7161C5.79589 11.676 5.86307 11.6482 5.86519 11.5888C5.86108 11.5783 5.85697 11.5678 5.85287 11.5573C5.83402 11.5496 5.81516 11.5419 5.79629 11.5343C5.80156 11.507 5.84104 11.5214 5.85359 11.5018C5.86838 11.4788 5.84355 11.4442 5.85323 11.4285C5.86119 11.4156 5.89743 11.4163 5.90597 11.3984C5.91857 11.3725 5.87839 11.3513 5.87951 11.3332C5.87994 11.326 5.91928 11.2142 5.92247 11.2085C5.94682 11.1659 5.99922 11.1992 6.02417 11.1696C6.09315 11.0874 6.11247 10.9641 6.15202 10.8688C6.16963 10.8263 6.19807 10.7896 6.23045 10.7589C6.31768 10.9154 6.49998 10.865 6.27211 10.7576C6.32725 10.7388 6.29392 10.6677 6.32907 10.6361C6.35184 10.6157 6.39055 10.6203 6.41414 10.5842C6.45568 10.5203 6.42779 10.3884 6.57741 10.4849C6.6045 10.3915 6.69863 10.371 6.59765 10.2422C6.60387 10.217 6.70969 10.2305 6.73444 10.2182C6.75772 10.2061 6.90035 10.0842 6.92051 10.0618C6.94053 10.039 6.97452 9.99826 6.97978 9.96853C6.98645 9.93152 6.87953 9.80218 7.05562 9.88681C7.08492 9.82354 7.10362 9.80846 7.15801 9.77511C7.16787 9.76908 7.18938 9.78767 7.19343 9.78257C7.20174 9.77201 7.20061 9.73955 7.21368 9.71895C7.2352 9.68507 7.29259 9.70913 7.22367 9.64902C7.22886 9.61798 7.23413 9.58694 7.23951 9.55586C7.25799 9.56104 7.27645 9.56626 7.2949 9.57151C7.28983 9.5472 7.28482 9.52286 7.27984 9.4985C7.36443 9.60411 7.37039 9.47334 7.29597 9.44443C7.34771 9.42443 7.39943 9.40481 7.45114 9.38558C7.5532 9.4981 7.53426 9.31343 7.47052 9.26211C7.47434 9.25776 7.47817 9.25342 7.48199 9.24908C7.54285 9.23914 7.55008 9.18015 7.60908 9.15289C7.66803 9.12579 7.67446 9.14091 7.73468 9.17735C7.74138 9.1636 7.74809 9.14986 7.75483 9.13612C7.67386 8.93997 7.89109 9.19143 7.87709 8.98773C7.98605 9.04539 8.01094 8.92405 8.0323 8.84722C8.03477 8.8383 8.01926 8.82079 8.02154 8.80772C8.02731 8.77593 8.09165 8.75063 8.04019 8.69574C8.07009 8.6955 8.09996 8.69538 8.12979 8.69536C8.13337 8.67159 8.13701 8.64782 8.14069 8.62402C8.12516 8.60631 8.10963 8.58859 8.0941 8.57088C8.17244 8.60435 8.19251 8.53877 8.22503 8.53254C8.23154 8.53137 8.25354 8.55519 8.27162 8.54914C8.29286 8.54219 8.31354 8.50702 8.33736 8.49707C8.32081 8.46261 8.30432 8.4281 8.28788 8.39355C8.30647 8.34666 8.37849 8.40866 8.40143 8.39588C8.4055 8.3935 8.46128 8.32763 8.46328 8.32284C8.47969 8.28379 8.42059 8.22821 8.50946 8.16479C8.52532 8.15357 8.55416 8.16449 8.56741 8.15309C8.59075 8.13298 8.61833 8.01786 8.58733 7.96628C8.66019 7.99803 8.71465 7.9047 8.74941 7.90126C8.75994 7.90032 8.7901 7.93626 8.8162 7.92545C8.83734 7.91673 8.85643 7.84759 8.88101 7.83344C8.90716 7.81857 8.93879 7.84304 8.95031 7.83622C8.96117 7.82976 8.95063 7.79624 8.96348 7.78473C9.00394 7.74923 9.07059 7.75806 9.10265 7.73054C9.14907 7.69084 9.13409 7.57797 9.1485 7.50947C9.16172 7.506 9.18299 7.5143 9.1932 7.50561C9.31989 7.39859 9.47261 7.29213 9.612 7.20433C9.67676 7.16289 9.89538 7.15329 9.73906 7.00313C9.73963 6.95417 9.93948 6.90775 9.96935 6.88683C9.99924 6.86546 10.0022 6.81462 10.025 6.79654C10.0941 6.74206 10.1576 6.7292 10.2262 6.63693C10.2439 6.61302 10.2445 6.5558 10.258 6.54664C10.2743 6.5357 10.3138 6.56187 10.3359 6.54947C10.3881 6.51952 10.4729 6.4415 10.5244 6.41508C10.5338 6.41033 10.5559 6.44248 10.5743 6.44458C10.6457 6.4529 10.6978 6.4123 10.6283 6.30877C10.7247 6.32859 10.7516 6.23255 10.8083 6.19016C10.9279 6.10032 11.1678 5.98218 11.2547 5.86771C11.3094 5.79534 11.2835 5.74505 11.4072 5.72764C11.4346 5.72383 11.4636 5.72357 11.4967 5.71899C11.5747 5.70821 11.6769 5.76946 11.675 5.62602C11.7608 5.61457 11.8097 5.56081 11.9064 5.63018C11.9025 5.6029 11.8986 5.57561 11.8948 5.5483C11.9034 5.5428 11.9121 5.5373 11.9208 5.53182C11.9333 5.55301 11.9458 5.57421 11.9583 5.59542C12.0245 5.56673 12.0668 5.4293 12.122 5.40109C12.2141 5.35314 12.4664 5.26951 12.5659 5.2588C12.6187 5.25283 12.6028 5.20179 12.6674 5.29145C12.6752 5.27933 12.6829 5.26721 12.6907 5.2551C12.689 5.22953 12.6872 5.20394 12.6856 5.17835C12.7453 5.14886 12.8294 5.15054 12.8865 5.12398C12.9903 5.07534 13.1279 4.94267 13.2476 4.93901C13.2776 4.93809 13.326 4.97129 13.3518 4.95991C13.3894 4.9434 13.374 4.86106 13.422 4.8397C13.5051 4.80276 13.6879 4.8331 13.7648 4.79617C13.7877 4.78517 13.7903 4.7515 13.8057 4.7422C13.8701 4.70291 13.9268 4.68467 13.9802 4.61501C14.0716 4.66593 14.0916 4.76705 14.1396 4.85902C14.176 4.92837 14.2713 5.08551 14.2952 5.14916C14.3121 5.19383 14.3094 5.25983 14.3294 5.30849C14.259 5.37755 14.2137 5.3448 14.1283 5.29724C14.0076 5.34433 13.8871 5.39329 13.7675 5.44388C13.7483 5.42074 13.729 5.39764 13.7097 5.37459C13.7097 5.37453 13.7097 5.37447 13.7097 5.37441C13.6535 5.36133 13.6554 5.43999 13.6355 5.46615C13.4447 5.71425 12.9455 5.80202 12.6826 5.91534C12.6258 5.93893 12.4623 6.06577 12.4075 6.04302C12.3932 6.03698 12.3739 5.99783 12.3628 6.00153C12.2802 6.07445 12.1986 6.14813 12.1178 6.22264C11.9029 6.26463 11.7331 6.42865 11.5534 6.55168C11.0657 6.88548 10.606 7.25057 10.1446 7.6039C10.0552 7.67219 9.96218 7.78927 9.86595 7.84281C9.82584 7.86519 9.77214 7.82065 9.75484 7.90231C9.74384 7.88742 9.73284 7.87253 9.72184 7.85764C9.694 7.91056 9.69238 7.96725 9.64994 8.00959C9.61407 8.04511 9.51629 8.13474 9.4792 8.1586C9.45999 8.17102 9.44603 8.13732 9.43015 8.15178C9.40303 8.17677 9.37319 8.26788 9.33598 8.30203C9.3022 8.3329 9.22144 8.35378 9.19909 8.38259C9.1183 8.48595 9.05492 8.62782 8.94867 8.7105C8.91923 8.73325 8.85687 8.73266 8.84931 8.74196C8.83468 8.76021 8.85732 8.79856 8.85 8.81375C8.81274 8.89066 8.69453 8.93824 8.63985 8.99229C8.46172 9.1678 8.29463 9.378 8.12469 9.56101C8.01682 9.67642 7.85287 9.88337 7.73759 9.97527C7.71266 9.99503 7.68431 9.95572 7.66753 9.97651C7.64895 9.99959 7.66177 10.0341 7.655 10.0467C7.60788 10.1336 7.5018 10.3216 7.4236 10.3718C7.40861 10.3813 7.37389 10.3666 7.36775 10.3749C7.36459 10.3791 7.37603 10.4053 7.36807 10.4201C7.29789 10.551 7.22466 10.6262 7.13525 10.7362C6.96389 10.9474 6.82279 11.2378 6.64869 11.4647C6.61077 11.514 6.53016 11.5075 6.52601 11.5155C6.51684 11.5328 6.54911 11.5721 6.53803 11.6124C6.5008 11.7461 6.36822 11.8661 6.32525 11.9872C6.30392 12.0469 6.31249 12.1541 6.29411 12.2136C6.2793 12.2611 6.20377 12.3467 6.216 12.38C6.2233 12.4002 6.2641 12.4338 6.26212 12.4508ZM6.47145 10.5722C6.53133 10.6328 6.53053 10.5116 6.4758 10.5117C6.46343 10.5118 6.45587 10.5565 6.47145 10.5722ZM9.44708 7.48497C9.43247 7.46521 9.41785 7.44545 9.40324 7.42569C9.39997 7.44187 9.39673 7.45804 9.39351 7.47421C9.40703 7.48204 9.42054 7.48989 9.43403 7.49775C9.43838 7.49349 9.44273 7.48923 9.44708 7.48497Z" fill="white"/>
<path d="M24.3855 17.4606C24.3869 17.45 24.404 17.4463 24.4178 17.4406C24.4243 17.4379 24.43 17.4346 24.4331 17.4301C24.4742 17.3705 24.5053 17.3587 24.5473 17.3079C24.6095 17.2326 24.7143 16.9576 24.8964 17.0749C24.8964 17.0749 24.8964 17.0749 24.8964 17.0749C24.8982 17.0761 24.9 17.0773 24.9018 17.0785C24.936 17.1017 24.962 17.1476 24.9995 17.1761C25.037 17.2046 25.2917 17.3655 25.2891 17.4052C25.2835 17.4615 25.16 17.5259 25.1499 17.5514C25.1429 17.5688 25.155 17.6035 25.1477 17.6268C25.1242 17.7019 25.0882 17.7258 25.1177 17.8261C25.0867 17.828 25.0557 17.8298 25.0246 17.8317C25.0094 17.8327 24.9942 17.8337 24.9789 17.8347C24.9766 17.8765 24.9065 17.8962 24.8981 17.9169C24.8912 17.9339 24.912 17.9602 24.9039 17.9774C24.895 17.9968 24.8511 18.0064 24.8363 18.0424C24.8118 18.1014 24.8733 18.1566 24.8627 18.1953C24.8517 18.2354 24.7845 18.2631 24.7824 18.3225C24.7865 18.333 24.7906 18.3436 24.7947 18.3541C24.8136 18.3618 24.8324 18.3694 24.8513 18.3771C24.846 18.4043 24.8065 18.39 24.794 18.4095C24.7792 18.4325 24.804 18.4672 24.7944 18.4829C24.7864 18.4958 24.7502 18.4951 24.7416 18.5129C24.729 18.5389 24.7692 18.56 24.7681 18.5782C24.7676 18.5854 24.7283 18.6972 24.7251 18.7029C24.7008 18.7455 24.6484 18.7122 24.6234 18.7418C24.5544 18.824 24.5351 18.9473 24.4956 19.0426C24.478 19.0851 24.4495 19.1217 24.4171 19.1525C24.3299 18.996 24.1476 19.0464 24.3755 19.1538C24.3203 19.1726 24.3537 19.2436 24.3185 19.2753C24.2957 19.2956 24.257 19.2911 24.2334 19.3271C24.1919 19.3911 24.2198 19.523 24.0702 19.4265C24.0431 19.5198 23.9489 19.5403 24.0499 19.6692C24.0437 19.6943 23.9379 19.6809 23.9131 19.6932C23.8899 19.7053 23.7472 19.8271 23.7271 19.8496C23.7071 19.8724 23.6731 19.9131 23.6678 19.9428C23.6611 19.9799 23.7681 20.1092 23.592 20.0246C23.5627 20.0878 23.544 20.1029 23.4896 20.1363C23.4797 20.1423 23.4582 20.1237 23.4541 20.1288C23.4458 20.1394 23.447 20.1718 23.4339 20.1924C23.4124 20.2263 23.355 20.2023 23.4239 20.2624C23.4187 20.2934 23.4135 20.3244 23.4081 20.3555C23.3896 20.3503 23.3711 20.3451 23.3527 20.3399C23.3578 20.3642 23.3628 20.3885 23.3677 20.4129C23.2832 20.3073 23.2772 20.438 23.3516 20.4669C23.2999 20.4869 23.2482 20.5066 23.1964 20.5258C23.0944 20.4133 23.1133 20.5979 23.1771 20.6493C23.1732 20.6536 23.1694 20.658 23.1656 20.6623C23.1047 20.6722 23.0975 20.7312 23.0385 20.7585C22.9796 20.7856 22.9731 20.7705 22.9129 20.734C22.9062 20.7478 22.8995 20.7615 22.8928 20.7753C22.9737 20.9714 22.7565 20.72 22.7705 20.9236C22.6615 20.866 22.6366 20.9873 22.6153 21.0642C22.6128 21.0731 22.6283 21.0906 22.626 21.1037C22.6203 21.1354 22.5559 21.1607 22.6074 21.2156C22.5775 21.2159 22.5476 21.216 22.5178 21.216C22.5142 21.2398 22.5106 21.2636 22.5069 21.2874C22.5224 21.3051 22.538 21.3228 22.5535 21.3405C22.4751 21.307 22.4551 21.3726 22.4226 21.3788C22.416 21.38 22.394 21.3562 22.376 21.3622C22.3547 21.3692 22.334 21.4044 22.3102 21.4143C22.3268 21.4488 22.3433 21.4833 22.3597 21.5178C22.3411 21.5647 22.2691 21.5027 22.2462 21.5155C22.2421 21.5179 22.1863 21.5837 22.1843 21.5885C22.1679 21.6276 22.227 21.6832 22.1381 21.7466C22.1223 21.7578 22.0934 21.7469 22.0802 21.7583C22.0568 21.7784 22.0293 21.8935 22.0603 21.9451C21.9874 21.9133 21.9329 22.0067 21.8982 22.0101C21.8876 22.0111 21.8575 21.9751 21.8314 21.9859C21.8102 21.9946 21.7912 22.0638 21.7666 22.0779C21.7404 22.0928 21.7088 22.0683 21.6973 22.0752C21.6864 22.0816 21.697 22.1151 21.6841 22.1266C21.6436 22.1621 21.577 22.1533 21.5449 22.1808C21.4985 22.2205 21.5135 22.3334 21.4991 22.4019C21.4859 22.4054 21.4646 22.3971 21.4544 22.4058C21.3277 22.5128 21.175 22.6193 21.0356 22.707C20.9708 22.7485 20.7522 22.7581 20.9085 22.9083C20.908 22.9572 20.7081 23.0036 20.6782 23.0245C20.6483 23.0459 20.6454 23.0968 20.6225 23.1148C20.5535 23.1693 20.49 23.1822 20.4214 23.2744C20.4037 23.2984 20.4031 23.3556 20.3896 23.3647C20.3732 23.3757 20.3337 23.3495 20.3117 23.3619C20.2594 23.3919 20.1746 23.4699 20.1232 23.4963C20.1138 23.501 20.0917 23.4689 20.0733 23.4668C20.0018 23.4585 19.9497 23.4991 20.0193 23.6026C19.9229 23.5828 19.896 23.6788 19.8393 23.7212C19.7197 23.8111 19.4798 23.9292 19.3929 24.0437C19.3382 24.116 19.3641 24.1663 19.2404 24.1837C19.2129 24.1876 19.184 24.1878 19.1509 24.1924C19.0729 24.2032 18.9707 24.1419 18.9726 24.2854C18.8868 24.2968 18.8379 24.3506 18.7411 24.2812C18.7451 24.3085 18.749 24.3358 18.7528 24.3631C18.7441 24.3686 18.7355 24.3741 18.7268 24.3796C18.7143 24.3584 18.7018 24.3372 18.6893 24.316C18.6231 24.3447 18.5808 24.4821 18.5256 24.5103C18.4335 24.5582 18.1812 24.6419 18.0816 24.6526C18.0289 24.6586 18.0448 24.7096 17.9802 24.6199C17.9724 24.632 17.9646 24.6442 17.9569 24.6563C17.9586 24.6818 17.9603 24.7074 17.962 24.733C17.9023 24.7625 17.8182 24.7608 17.7611 24.7874C17.6573 24.836 17.5197 24.9687 17.4 24.9724C17.37 24.9733 17.3216 24.9401 17.2958 24.9515C17.2582 24.968 17.2736 25.0503 17.2256 25.0717C17.1425 25.1086 16.9597 25.0783 16.8828 25.1152C16.8599 25.1262 16.8573 25.1599 16.8419 25.1692C16.7775 25.2085 16.7208 25.2267 16.6673 25.2964C16.576 25.2454 16.556 25.1443 16.508 25.0524C16.4716 24.983 16.3763 24.8259 16.3523 24.7622C16.3355 24.7175 16.3382 24.6515 16.3181 24.6029C16.3886 24.5338 16.4339 24.5666 16.5193 24.6141C16.64 24.567 16.7605 24.5181 16.8801 24.4675C16.8993 24.4906 16.9186 24.5137 16.9379 24.5368C16.9379 24.5369 16.9379 24.5369 16.9379 24.537C16.9941 24.55 16.9922 24.4714 17.0121 24.4452C17.2029 24.1971 17.7021 24.1094 17.9649 23.996C18.0217 23.9724 18.1853 23.8456 18.2401 23.8684C18.2543 23.8744 18.2737 23.9135 18.2848 23.9098C18.3674 23.8369 18.449 23.7632 18.5298 23.6887C18.7447 23.6467 18.9145 23.4827 19.0942 23.3597C19.5819 23.0259 20.0416 22.6608 20.503 22.3075C20.5924 22.2392 20.6854 22.1221 20.7816 22.0686C20.8217 22.0462 20.8754 22.0907 20.8927 22.0091C20.9037 22.024 20.9147 22.0388 20.9257 22.0537C20.9536 22.0008 20.9552 21.9441 20.9976 21.9018C21.0335 21.8663 21.1313 21.7766 21.1684 21.7528C21.1876 21.7404 21.2016 21.7741 21.2174 21.7596C21.2446 21.7346 21.2744 21.6435 21.3116 21.6093C21.3454 21.5785 21.4261 21.5576 21.4485 21.5288C21.5293 21.4254 21.5927 21.2836 21.6989 21.2009C21.7284 21.1781 21.7907 21.1787 21.7983 21.1694C21.8129 21.1512 21.7903 21.1128 21.7976 21.0976C21.8348 21.0207 21.9531 20.9731 22.0077 20.9191C22.1859 20.7436 22.353 20.5334 22.5229 20.3504C22.6308 20.235 22.7947 20.028 22.91 19.9361C22.9349 19.9163 22.9633 19.9557 22.9801 19.9349C22.9986 19.9118 22.9858 19.8773 22.9926 19.8647C23.0397 19.7778 23.1458 19.5898 23.224 19.5396C23.239 19.5301 23.2737 19.5448 23.2798 19.5364C23.283 19.5323 23.2716 19.506 23.2795 19.4912C23.3497 19.3604 23.4229 19.2852 23.5123 19.1751C23.6837 18.964 23.8248 18.6736 23.9989 18.4467C24.0368 18.3973 24.1174 18.4038 24.1216 18.3959C24.1307 18.3786 24.0985 18.3392 24.1096 18.2989C24.1468 18.1653 24.2794 18.0453 24.3223 17.9242C24.3437 17.8644 24.3351 17.7573 24.3535 17.6978C24.3683 17.6503 24.4438 17.5647 24.4316 17.5314C24.4243 17.5112 24.3835 17.4776 24.3855 17.4606ZM24.1761 19.3392C24.1163 19.2786 24.1171 19.3997 24.1718 19.3997C24.1841 19.3996 24.1917 19.3549 24.1761 19.3392ZM21.2005 22.4264C21.2151 22.4462 21.2297 22.4659 21.2443 22.4857C21.2476 22.4695 21.2509 22.4533 21.2541 22.4372C21.2406 22.4293 21.227 22.4215 21.2136 22.4136C21.2092 22.4179 21.2049 22.4221 21.2005 22.4264Z" fill="white"/>
<path d="M13.5291 6.74076C13.5385 6.73153 13.5605 6.75987 13.5735 6.75794C13.6278 6.75021 13.652 6.76747 13.7022 6.76719C13.7759 6.76623 13.9793 6.66978 14.0178 6.90081C14.0178 6.90081 14.0178 6.90081 14.0178 6.90081L-nan -nanL14.057 7.13274L-nan -nanL14.0178 6.90082C14.0178 6.90082 14.0178 6.90082 14.0178 6.90082C14.0182 6.90308 14.0186 6.90537 14.0189 6.90769C14.0256 6.95176 14.0163 7.00387 14.0222 7.0541C14.0282 7.10435 14.0848 7.42428 14.0645 7.44803C14.0346 7.47998 13.938 7.41911 13.9203 7.42771C13.9083 7.43351 13.8986 7.46658 13.8838 7.47601C13.8361 7.50641 13.8047 7.4929 13.7755 7.58438C13.7486 7.54833 13.7215 7.51243 13.6942 7.47666C13.6744 7.50284 13.6261 7.45956 13.6121 7.46706C13.6006 7.4732 13.601 7.50786 13.5889 7.51324C13.5753 7.51946 13.5458 7.49116 13.5215 7.50457C13.4818 7.52644 13.4948 7.61331 13.4728 7.63212C13.45 7.6516 13.3988 7.61922 13.3738 7.66003C13.372 7.67068 13.3703 7.68133 13.3686 7.69198C13.3769 7.71186 13.3852 7.73175 13.3935 7.75165C13.3798 7.76698 13.3617 7.72661 13.3465 7.73108C13.3287 7.73633 13.3304 7.78002 13.3186 7.78401C13.3089 7.78725 13.2872 7.75951 13.2752 7.76607C13.2577 7.77548 13.2744 7.82081 13.2671 7.83311C13.264 7.83787 13.1996 7.89021 13.1957 7.89216C13.1657 7.90556 13.1447 7.84295 13.1184 7.84686C13.0456 7.85809 12.9914 7.93737 12.9356 7.98246C12.9106 8.00265 12.8805 8.01122 12.8497 8.01306C12.841 7.83345 12.7019 7.75076 12.8216 7.98603C12.7789 7.96371 12.7798 8.04097 12.747 8.04243C12.7257 8.04336 12.7008 8.01454 12.6742 8.0277C12.6269 8.05134 12.6112 8.17322 12.533 8.00328C12.4885 8.06084 12.416 8.02102 12.4553 8.18556C12.4448 8.20194 12.3728 8.12817 12.3518 8.12389C12.3321 8.11949 12.1994 8.1384 12.1794 8.14653C12.1595 8.15431 12.1252 8.16968 12.115 8.19166C12.1018 8.21916 12.1561 8.38357 12.0413 8.21962C12.0066 8.25739 11.9899 8.2603 11.9422 8.26093C11.9335 8.26106 11.9206 8.23447 11.9165 8.23677C11.9082 8.24157 11.903 8.26969 11.8894 8.28072C11.8669 8.29882 11.8268 8.25044 11.8695 8.33526C11.8602 8.35912 11.8511 8.38298 11.8421 8.40685C11.8287 8.39353 11.8153 8.38025 11.8019 8.36698C11.802 8.39017 11.8021 8.41333 11.8022 8.43648C11.753 8.30617 11.7283 8.41575 11.7819 8.47507C11.7392 8.46797 11.6962 8.46125 11.6531 8.45491C11.5879 8.31228 11.5778 8.4813 11.6224 8.55304C11.6189 8.55514 11.6154 8.55723 11.6119 8.55933C11.5629 8.54175 11.5507 8.58984 11.5012 8.58932C11.4516 8.58893 11.448 8.57333 11.4032 8.51754C11.3964 8.52698 11.3896 8.53642 11.3829 8.54588C11.4308 8.74921 11.2767 8.44502 11.2714 8.63069C11.1868 8.5402 11.1568 8.64011 11.1357 8.70121C11.1332 8.70832 11.1451 8.72903 11.1426 8.73986C11.1365 8.76603 11.0826 8.7677 11.123 8.833C11.0986 8.82351 11.074 8.81414 11.0494 8.80489C11.0458 8.82493 11.0422 8.84496 11.0387 8.86498C11.0511 8.88548 11.0636 8.90598 11.076 8.92648C11.0123 8.8726 10.9947 8.92522 10.968 8.92131C10.9626 8.92048 10.9445 8.8929 10.9295 8.89319C10.9117 8.89339 10.8945 8.91908 10.8747 8.92154C10.8886 8.95685 10.9026 8.99212 10.9167 9.02734C10.9021 9.0639 10.8414 8.98961 10.8224 8.99521C10.8189 8.99622 10.7739 9.04124 10.7725 9.04512C10.76 9.07622 10.811 9.13966 10.7403 9.17537C10.7277 9.18171 10.7031 9.16548 10.6926 9.17275C10.6739 9.18557 10.6584 9.28261 10.6883 9.33481C10.6253 9.29124 10.5875 9.36404 10.559 9.36076C10.5503 9.35968 10.5217 9.32214 10.5008 9.32728C10.4837 9.33143 10.4745 9.38999 10.4555 9.39867C10.4351 9.40776 10.4058 9.38111 10.3968 9.38549C10.3884 9.38968 10.401 9.42118 10.3916 9.42958C10.3617 9.45533 10.3043 9.43868 10.2807 9.45951C10.2464 9.48955 10.275 9.59206 10.2739 9.65104C10.2633 9.65268 10.2442 9.64312 10.237 9.6498C10.1477 9.73183 10.04 9.81582 9.94203 9.8897C9.89679 9.92336 9.7148 9.93363 9.88251 10.064C9.894 10.1058 9.74027 10.1489 9.72117 10.1691C9.70212 10.1887 9.71392 10.2327 9.70023 10.2493C9.65892 10.2995 9.60991 10.3148 9.58243 10.3989C9.57541 10.4207 9.59331 10.4693 9.58532 10.4781C9.5756 10.4888 9.53481 10.4703 9.52089 10.483C9.48788 10.5135 9.44578 10.5888 9.41372 10.6177C9.40779 10.6229 9.37838 10.599 9.36271 10.5998C9.30154 10.6028 9.27398 10.6454 9.36869 10.7205C9.28359 10.7186 9.29852 10.8027 9.27045 10.847C9.21037 10.9403 9.0723 11.0871 9.05811 11.199C9.04915 11.2694 9.09257 11.3011 9.007 11.3466C8.98802 11.3568 8.96624 11.3648 8.94338 11.3775C8.88988 11.4071 8.78176 11.3922 8.85554 11.5001C8.79717 11.5351 8.78919 11.5905 8.68122 11.5717C8.69842 11.5907 8.71566 11.6096 8.73292 11.6285C8.72945 11.6355 8.72598 11.6425 8.72253 11.6495C8.70209 11.6381 8.68164 11.6268 8.66119 11.6154C8.62731 11.6601 8.67133 11.7755 8.64766 11.8156C8.60737 11.883 8.47878 12.0408 8.41725 12.0919C8.38442 12.1187 8.42635 12.1462 8.32771 12.1139C8.32971 12.1256 8.33173 12.1373 8.33377 12.1489C8.35053 12.1654 8.36732 12.1819 8.38413 12.1983C8.36168 12.2444 8.30422 12.2815 8.28298 12.3259C8.24409 12.4066 8.24149 12.5571 8.16905 12.6199C8.15076 12.6356 8.09814 12.6403 8.08962 12.6609C8.07721 12.6908 8.14252 12.7324 8.12767 12.7702C8.12103 12.7871 8.10739 12.805 8.09048 12.8235C8.04081 12.8791 7.96349 12.9393 7.948 12.9887C7.94176 13.0084 7.96364 13.0297 7.96084 13.044C7.94939 13.1043 7.92824 13.1482 7.94559 13.2198C7.85569 13.244 7.77257 13.1977 7.67921 13.1734C7.60872 13.155 7.44116 13.1225 7.38189 13.1006C7.34026 13.0852 7.29531 13.0452 7.24897 13.0295C7.24251 12.9451 7.29316 12.9355 7.37822 12.9109C7.41869 12.8086 7.45916 12.7064 7.49963 12.6042C7.52752 12.6066 7.55541 12.6091 7.5833 12.6116C7.58336 12.6116 7.58341 12.6116 7.58346 12.6116C7.59621 12.6043 7.60072 12.5952 7.60055 12.5854C7.60034 12.5605 7.57181 12.5309 7.56846 12.5107C7.52194 12.2363 7.81869 11.8876 7.94993 11.6834C7.9776 11.6385 8.03072 11.468 8.08541 11.4606C8.09952 11.4587 8.13529 11.4795 8.14171 11.4719C8.16521 11.3811 8.18984 11.2906 8.21596 11.1999C8.36318 11.0809 8.42166 10.8911 8.51775 10.7323C8.77659 10.3039 9.06038 9.89292 9.39608 9.54197C9.46075 9.47431 9.52192 9.36364 9.59941 9.31359C9.63172 9.29264 9.68635 9.33394 9.68924 9.25918C9.7013 9.27303 9.71336 9.28687 9.72542 9.30072C9.74199 9.2528 9.73541 9.20055 9.7678 9.16285C9.79499 9.13108 9.87213 9.05324 9.90303 9.03398C9.91893 9.02382 9.93481 9.05604 9.94749 9.0439C9.96895 9.02296 9.98736 8.94113 10.0182 8.91308C10.0461 8.88761 10.1167 8.87752 10.1348 8.85379C10.2003 8.76843 10.2529 8.64558 10.3474 8.58785C10.3735 8.57198 10.4288 8.58473 10.4354 8.57769C10.4484 8.56374 10.4288 8.52358 10.4355 8.51094C10.4698 8.44671 10.5761 8.42891 10.6264 8.39287C10.7907 8.27473 10.9555 8.1327 11.1264 8.02794C11.234 7.96129 11.4086 7.84145 11.5229 7.81211C11.5474 7.80572 11.5625 7.85318 11.5804 7.84246C11.6003 7.83059 11.5973 7.79438 11.6056 7.78644C11.6623 7.73107 11.7942 7.61843 11.87 7.61588C11.8844 7.61537 11.9079 7.646 11.915 7.64206C11.9185 7.64013 11.9165 7.61165 11.9269 7.60312C12.0178 7.52788 12.0972 7.50423 12.1997 7.46364C12.3952 7.38604 12.6035 7.23946 12.8172 7.18278C12.8638 7.17036 12.9161 7.2319 12.9221 7.22874C12.9354 7.22194 12.9298 7.16908 12.9544 7.14612C13.0363 7.07011 13.1776 7.07771 13.2607 7.02253C13.3018 6.99517 13.3477 6.91127 13.3889 6.88303C13.4217 6.8603 13.511 6.8598 13.5206 6.827C13.5264 6.8071 13.519 6.75106 13.5291 6.74076ZM12.6314 8.00049C12.6074 7.91437 12.5731 8.0111 12.6112 8.04556C12.6198 8.05333 12.6376 8.02283 12.6314 8.00049ZM10.026 9.64805C10.0419 9.66651 10.0578 9.68497 10.0738 9.70343C10.0736 9.68929 10.0735 9.67513 10.0733 9.66097C10.0605 9.6531 10.0477 9.64526 10.0348 9.63743C10.0319 9.64097 10.0289 9.64451 10.026 9.64805Z" fill="white"/>
<path d="M17.6751 22.8747C17.6658 22.8839 17.6437 22.8556 17.6308 22.8575C17.5765 22.8653 17.5523 22.848 17.502 22.8483C17.4283 22.8493 17.2249 22.9457 17.1864 22.7147C17.1864 22.7147 17.1864 22.7147 17.1864 22.7147L-nan -nanL17.1473 22.4827C17.1473 22.4827 17.1473 22.4827 17.1473 22.4827L-nan -nanL17.1864 22.7147C17.1864 22.7147 17.1864 22.7147 17.1864 22.7147C17.186 22.7124 17.1857 22.7101 17.1853 22.7078C17.1787 22.6637 17.188 22.6116 17.182 22.5614C17.176 22.5111 17.1195 22.1912 17.1398 22.1674C17.1696 22.1355 17.2662 22.1964 17.2839 22.1878C17.2959 22.182 17.3056 22.1489 17.3204 22.1395C17.3681 22.1091 17.3995 22.1226 17.4288 22.0311C17.4556 22.0671 17.4827 22.1031 17.51 22.1388C17.5298 22.1126 17.5781 22.1559 17.5922 22.1484C17.6036 22.1423 17.6032 22.1076 17.6154 22.1022C17.6289 22.096 17.6585 22.1243 17.6827 22.1109C17.7225 22.089 17.7094 22.0022 17.7315 21.9834C17.7542 21.9639 17.8055 21.9963 17.8305 21.9554C17.8322 21.9448 17.8339 21.9341 17.8356 21.9235C17.8273 21.9036 17.819 21.8837 17.8107 21.8638C17.8245 21.8485 17.8425 21.8889 17.8577 21.8844C17.8756 21.8791 17.8738 21.8355 17.8856 21.8315C17.8953 21.8282 17.9171 21.856 17.929 21.8494C17.9465 21.84 17.9298 21.7947 17.9372 21.7824C17.9402 21.7776 18.0046 21.7253 18.0085 21.7233C18.0385 21.7099 18.0596 21.7725 18.0858 21.7686C18.1586 21.7574 18.2128 21.6781 18.2686 21.633C18.2937 21.6128 18.3237 21.6043 18.3546 21.6024C18.3632 21.782 18.5023 21.8647 18.3826 21.6294C18.4253 21.6518 18.4244 21.5745 18.4572 21.573C18.4785 21.5721 18.5034 21.6009 18.53 21.5878C18.5773 21.5641 18.5931 21.4423 18.6713 21.6122C18.7157 21.5546 18.7883 21.5945 18.749 21.4299C18.7594 21.4135 18.8314 21.4873 18.8524 21.4916C18.8721 21.496 19.0049 21.4771 19.0248 21.4689C19.0447 21.4612 19.079 21.4458 19.0892 21.4238C19.1024 21.3963 19.0481 21.2319 19.1629 21.3959C19.1976 21.3581 19.2144 21.3552 19.2621 21.3545C19.2707 21.3544 19.2836 21.381 19.2877 21.3787C19.2961 21.3739 19.3012 21.3458 19.3149 21.3348C19.3374 21.3167 19.3774 21.365 19.3347 21.2802C19.344 21.2564 19.3531 21.2325 19.3622 21.2086C19.3755 21.2219 19.3889 21.2352 19.4023 21.2485C19.4023 21.2253 19.4022 21.2021 19.402 21.179C19.4512 21.3093 19.4759 21.1997 19.4223 21.1404C19.4651 21.1475 19.508 21.1542 19.5511 21.1606C19.6163 21.3032 19.6265 21.1342 19.5818 21.0624C19.5853 21.0603 19.5888 21.0582 19.5923 21.0562C19.6413 21.0737 19.6535 21.0256 19.703 21.0262C19.7526 21.0265 19.7562 21.0422 19.801 21.0979C19.8078 21.0885 19.8146 21.0791 19.8213 21.0696C19.7734 20.8663 19.9276 21.1705 19.9328 20.9848C20.0174 21.0753 20.0474 20.9754 20.0685 20.9143C20.071 20.9072 20.0591 20.8864 20.0616 20.8756C20.0678 20.8494 20.1216 20.8478 20.0812 20.7825C20.1057 20.792 20.1302 20.8013 20.1548 20.8106C20.1585 20.7905 20.162 20.7705 20.1655 20.7505C20.1531 20.73 20.1406 20.7095 20.1282 20.689C20.1919 20.7429 20.2095 20.6903 20.2362 20.6942C20.2416 20.695 20.2597 20.7226 20.2748 20.7223C20.2925 20.7221 20.3097 20.6964 20.3295 20.6939C20.3156 20.6586 20.3016 20.6234 20.2876 20.5881C20.3021 20.5516 20.3629 20.6259 20.3819 20.6203C20.3853 20.6193 20.4303 20.5742 20.4318 20.5704C20.4443 20.5393 20.3932 20.4758 20.4639 20.4401C20.4765 20.4338 20.5012 20.45 20.5116 20.4427C20.5303 20.4299 20.5459 20.3329 20.5159 20.2807C20.5789 20.3242 20.6168 20.2514 20.6452 20.2547C20.6539 20.2558 20.6825 20.2933 20.7035 20.2882C20.7205 20.284 20.7297 20.2255 20.7487 20.2168C20.7691 20.2077 20.7984 20.2344 20.8074 20.23C20.8159 20.2258 20.8032 20.1943 20.8127 20.1859C20.8425 20.1602 20.8999 20.1768 20.9235 20.156C20.9579 20.1259 20.9292 20.0234 20.9304 19.9644C20.9409 19.9628 20.96 19.9724 20.9672 19.9657C21.0565 19.8837 21.1642 19.7997 21.2622 19.7258C21.3074 19.6921 21.4894 19.6819 21.3217 19.5515C21.3102 19.5097 21.464 19.4666 21.4831 19.4464C21.5021 19.4267 21.4903 19.3827 21.504 19.3661C21.5453 19.316 21.5943 19.3007 21.6218 19.2166C21.6288 19.1947 21.6109 19.1462 21.6189 19.1373C21.6286 19.1267 21.6694 19.1452 21.6833 19.1325C21.7163 19.102 21.7584 19.0266 21.7905 18.9978C21.7964 18.9926 21.8258 19.0165 21.8415 19.0157C21.9027 19.0127 21.9302 18.9701 21.8355 18.895C21.9206 18.8968 21.9057 18.8127 21.9338 18.7684C21.9939 18.6752 22.1319 18.5284 22.1461 18.4164C22.1551 18.3461 22.1117 18.3144 22.1972 18.2689C22.2162 18.2587 22.238 18.2507 22.2608 18.238C22.3143 18.2084 22.4225 18.2233 22.3487 18.1154C22.4071 18.0804 22.415 18.0249 22.523 18.0438C22.5058 18.0248 22.4886 18.0058 22.4713 17.9869C22.4748 17.98 22.4782 17.973 22.4817 17.966C22.5021 17.9773 22.5226 17.9887 22.543 18C22.5769 17.9554 22.5329 17.84 22.5566 17.7998C22.5969 17.7325 22.7254 17.5747 22.787 17.5236C22.8198 17.4968 22.7779 17.4692 22.8765 17.5016C22.8745 17.4899 22.8725 17.4782 22.8705 17.4665C22.8537 17.45 22.8369 17.4336 22.8201 17.4171C22.8425 17.3711 22.9 17.3339 22.9212 17.2896C22.9601 17.2089 22.9627 17.0584 23.0352 16.9956C23.0535 16.9799 23.1061 16.9751 23.1146 16.9546C23.127 16.9247 23.0617 16.8831 23.0766 16.8452C23.0832 16.8284 23.0968 16.8105 23.1137 16.792C23.1634 16.7364 23.2407 16.6761 23.2562 16.6268C23.2625 16.6071 23.2406 16.5858 23.2434 16.5715C23.2548 16.5111 23.276 16.4673 23.2586 16.3957C23.3485 16.3715 23.4317 16.4178 23.525 16.4421C23.5955 16.4604 23.7631 16.493 23.8223 16.5149C23.864 16.5302 23.9089 16.5703 23.9553 16.586C23.9617 16.6704 23.9111 16.6799 23.826 16.7046C23.7855 16.8068 23.7451 16.9091 23.7046 17.0113C23.6767 17.0088 23.6488 17.0064 23.6209 17.0039C23.6209 17.0039 23.6208 17.0039 23.6208 17.0038C23.608 17.0112 23.6035 17.0202 23.6037 17.0301C23.6039 17.0549 23.6324 17.0846 23.6358 17.1048C23.6823 17.3791 23.3855 17.7279 23.2543 17.9321C23.2266 17.977 23.1735 18.1475 23.1188 18.1549C23.1047 18.1567 23.0689 18.136 23.0625 18.1436C23.039 18.2344 23.0144 18.3249 22.9883 18.4156C22.841 18.5346 22.7826 18.7244 22.6865 18.8832C22.4276 19.3116 22.1438 19.7226 21.8081 20.0735C21.7435 20.1412 21.6823 20.2518 21.6048 20.3019C21.5725 20.3228 21.5179 20.2815 21.515 20.3563C21.5029 20.3425 21.4909 20.3286 21.4788 20.3148C21.4622 20.3627 21.4688 20.4149 21.4364 20.4526C21.4092 20.4844 21.3321 20.5622 21.3012 20.5815C21.2853 20.5917 21.2694 20.5594 21.2567 20.5716C21.2353 20.5925 21.2169 20.6744 21.186 20.7024C21.1581 20.7279 21.0875 20.738 21.0694 20.7617C21.004 20.847 20.9514 20.9699 20.8569 21.0276C20.8307 21.0435 20.7755 21.0308 20.7688 21.0378C20.7558 21.0517 20.7754 21.0919 20.7687 21.1045C20.7344 21.1688 20.6281 21.1866 20.5778 21.2226C20.4135 21.3408 20.2488 21.4828 20.0778 21.5875C19.9702 21.6542 19.7957 21.774 19.6814 21.8034C19.6568 21.8098 19.6418 21.7623 19.6238 21.773C19.6039 21.7849 19.6069 21.8211 19.5987 21.829C19.5419 21.8844 19.4101 21.9971 19.3342 21.9996C19.3198 22.0001 19.2963 21.9695 19.2893 21.9734C19.2857 21.9754 19.2877 22.0038 19.2774 22.0124C19.1864 22.0876 19.107 22.1113 19.0045 22.1518C18.809 22.2294 18.6007 22.376 18.387 22.4327C18.3404 22.4451 18.2881 22.3836 18.2822 22.3867C18.2688 22.3935 18.2744 22.4464 18.2498 22.4694C18.1679 22.5454 18.0267 22.5378 17.9435 22.5929C17.9024 22.6203 17.8565 22.7042 17.8153 22.7324C17.7825 22.7552 17.6932 22.7557 17.6837 22.7885C17.6778 22.8084 17.6853 22.8644 17.6751 22.8747ZM18.5728 21.615C18.5968 21.7011 18.6311 21.6044 18.593 21.5699C18.5844 21.5622 18.5666 21.5927 18.5728 21.615ZM21.1783 19.9674C21.1623 19.949 21.1464 19.9305 21.1305 19.912C21.1306 19.9262 21.1308 19.9403 21.1309 19.9545C21.1437 19.9624 21.1566 19.9702 21.1694 19.978C21.1724 19.9745 21.1753 19.971 21.1783 19.9674Z" fill="white"/>
</svg>
