<svg width="38" height="37" viewBox="0 0 38 37" fill="none" xmlns="http://www.w3.org/2000/svg">
<path d="M0.209961 7.3857V7.3857C3.41322 6.52225 6.20107 4.45724 7.9383 1.63086V1.63086H27.8388L28.5858 2.37069C31.0086 4.77004 34.0137 6.49824 37.306 7.3857V7.3857V11.5458C37.306 22.94 30.097 33.0869 19.3376 36.8369V36.8369V36.8369C8.29002 33.0675 0.725615 22.8577 0.336794 11.1913L0.209961 7.3857Z" fill="#272727" fill-opacity="0.73"/>
<path d="M27.0156 3.63086L27.1787 3.79199C29.4801 6.07101 32.2589 7.79842 35.3057 8.8584V11.5459C35.3056 21.858 28.9241 31.0644 19.3291 34.71C9.42519 31.0354 2.68948 21.7285 2.33594 11.125L2.25879 8.81445C4.94715 7.77113 7.30125 5.97148 9.00293 3.63086H27.0156Z" stroke="black" stroke-opacity="0.73" stroke-width="4"/>
<path d="M12.769 21.0879C12.992 21.0881 13.2917 21.2516 13.564 21.7285C13.8281 22.1915 14.0073 22.8644 14.0073 23.6348C14.0073 24.4052 13.8282 25.0781 13.564 25.541C13.2917 26.018 12.992 26.1815 12.769 26.1816C12.546 26.1816 12.2455 26.0182 11.9731 25.541C11.709 25.0781 11.5298 24.4051 11.5298 23.6348C11.5298 22.8645 11.709 22.1915 11.9731 21.7285C12.2455 21.2513 12.546 21.0879 12.769 21.0879Z" fill="black" fill-opacity="0.73" stroke="white"/>
<path d="M22.8154 21.0879C23.0384 21.0881 23.3381 21.2516 23.6104 21.7285C23.8745 22.1915 24.0537 22.8644 24.0537 23.6348C24.0537 24.4052 23.8746 25.0781 23.6104 25.541C23.3381 26.018 23.0384 26.1815 22.8154 26.1816C22.5924 26.1816 22.2919 26.0182 22.0195 25.541C21.7553 25.0781 21.5762 24.4051 21.5762 23.6348C21.5762 22.8645 21.7554 22.1915 22.0195 21.7285C22.2919 21.2513 22.5924 21.0879 22.8154 21.0879Z" fill="black" fill-opacity="0.73" stroke="white"/>
<path d="M17.9854 7.20874C21.5038 7.20874 24.2741 8.33932 26.1602 10.115C28.0464 11.8909 29.0781 14.3391 29.0781 17.0339C29.078 20.4183 26.4714 22.9837 22.5625 24.3777C18.2015 25.9329 12.5269 25.2758 9.25684 22.1326C7.33973 20.2898 6.42349 17.5405 6.58887 14.9226C6.75408 12.3075 7.9902 9.89482 10.291 8.65503C12.1758 7.63949 14.7131 7.20875 17.9854 7.20874Z" fill="black" fill-opacity="0.97" stroke="white"/>
<path d="M23.1539 12.8021C25.0329 14.2656 25.043 17.3365 23.3448 19.0065C22.7933 19.5488 22.143 19.911 21.4632 19.911C20.9373 19.911 20.4115 19.6367 19.9313 19.2082C17.9988 17.4835 17.8542 14.0156 20.0341 12.6166V12.6166C20.8797 12.0739 22.0305 12.0693 22.8787 12.608C22.9735 12.6682 23.0652 12.733 23.1539 12.8021Z" fill="white"/>
<path d="M13.1069 12.4634C14.986 13.927 14.996 16.9979 13.2978 18.6678C12.7463 19.2102 12.096 19.5723 11.4162 19.5723C10.8904 19.5723 10.3646 19.2981 9.88439 18.8696C7.95185 17.1449 7.80722 13.677 9.98714 12.278V12.278C10.8328 11.7353 11.9836 11.7307 12.8318 12.2693C12.9265 12.3295 13.0183 12.3944 13.1069 12.4634Z" fill="#EFEFEF"/>
<path d="M27.7295 25.1331C27.7616 25.1332 27.8103 25.1577 27.8564 25.2385C27.901 25.3167 27.9316 25.4317 27.9316 25.5637C27.9316 25.6958 27.9011 25.8107 27.8564 25.8889C27.8103 25.9696 27.7616 25.9933 27.7295 25.9934C27.6975 25.9934 27.6487 25.9697 27.6025 25.8889C27.5579 25.8107 27.5264 25.6958 27.5264 25.5637C27.5264 25.4316 27.5579 25.3168 27.6025 25.2385C27.6488 25.1574 27.6974 25.1331 27.7295 25.1331Z" fill="black" stroke="white" stroke-width="0.2"/>
<path d="M29.4775 25.1331C29.5096 25.1332 29.5583 25.1577 29.6045 25.2385C29.6491 25.3167 29.6797 25.4317 29.6797 25.5637C29.6796 25.6958 29.6491 25.8107 29.6045 25.8889C29.5584 25.9696 29.5096 25.9933 29.4775 25.9934C29.4455 25.9934 29.3968 25.9697 29.3506 25.8889C29.306 25.8107 29.2745 25.6958 29.2744 25.5637C29.2744 25.4316 29.306 25.3168 29.3506 25.2385C29.3969 25.1574 29.4454 25.1331 29.4775 25.1331Z" fill="black" stroke="white" stroke-width="0.2"/>
<path d="M28.6377 22.7188C29.2467 22.7188 29.7245 22.9154 30.0498 23.2217C30.3752 23.528 30.5537 23.9497 30.5537 24.415C30.5537 24.9958 30.1063 25.439 29.4287 25.6807C28.6737 25.9498 27.6923 25.8353 27.1279 25.293C26.7976 24.9754 26.6394 24.5009 26.668 24.0488C26.6965 23.5974 26.9093 23.1818 27.3047 22.9688C27.6297 22.7936 28.0693 22.7188 28.6377 22.7188Z" fill="black" stroke="white" stroke-width="0.2"/>
<path d="M29.0464 23.7312C29.1608 23.6577 29.3195 23.6565 29.4341 23.7292C29.4478 23.7379 29.4611 23.7474 29.4741 23.7576C29.7476 23.9706 29.7561 24.434 29.4985 24.6873C29.4129 24.7715 29.3229 24.8152 29.2407 24.8152C29.184 24.815 29.1158 24.7848 29.0415 24.7185C28.8967 24.5893 28.8157 24.3914 28.8149 24.198C28.8143 24.0056 28.8921 23.8303 29.0464 23.7312Z" fill="#EFEFEF" stroke="white" stroke-width="0.2"/>
<path d="M27.2998 23.6724C27.4143 23.5989 27.573 23.5977 27.6875 23.6704C27.7012 23.6791 27.7145 23.6886 27.7275 23.6987C28.001 23.9118 28.0095 24.3751 27.752 24.6284C27.6663 24.7126 27.5763 24.7563 27.4941 24.7563C27.4374 24.7562 27.3692 24.726 27.2949 24.6597C27.1502 24.5305 27.0692 24.3326 27.0684 24.1392C27.0677 23.9467 27.1456 23.7715 27.2998 23.6724Z" fill="#EFEFEF" stroke="white" stroke-width="0.2"/>
<path d="M25.627 27.8127C25.6346 27.8127 25.6612 27.8195 25.6914 27.8723C25.7201 27.9225 25.7412 27.9987 25.7412 28.0881C25.7412 28.1775 25.7201 28.2538 25.6914 28.304C25.6612 28.3568 25.6346 28.3635 25.627 28.3635C25.619 28.3634 25.5925 28.3565 25.5625 28.304C25.5339 28.2538 25.5127 28.1775 25.5127 28.0881C25.5127 27.9987 25.5339 27.9225 25.5625 27.8723C25.5925 27.8198 25.619 27.8128 25.627 27.8127Z" fill="black" fill-opacity="0.73" stroke="white" stroke-width="0.2"/>
<path d="M26.8638 27.8127C26.8714 27.8127 26.898 27.8195 26.9282 27.8723C26.9569 27.9225 26.978 27.9987 26.978 28.0881C26.978 28.1775 26.9569 28.2538 26.9282 28.304C26.898 28.3568 26.8714 28.3635 26.8638 28.3635C26.8559 28.3634 26.8293 28.3565 26.7993 28.304C26.7707 28.2538 26.7495 28.1775 26.7495 28.0881C26.7495 27.9987 26.7707 27.9225 26.7993 27.8723C26.8293 27.8198 26.8559 27.8128 26.8638 27.8127Z" fill="black" fill-opacity="0.73" stroke="white" stroke-width="0.2"/>
<path d="M26.2695 26.104C26.694 26.1041 27.025 26.2408 27.249 26.4517C27.4732 26.6627 27.5967 26.9542 27.5967 27.2759C27.5964 27.6686 27.2935 27.974 26.8193 28.1431C26.2928 28.3307 25.6112 28.2497 25.2217 27.8755C24.9949 27.6575 24.8846 27.3305 24.9043 27.0181C24.924 26.7061 25.0719 26.4228 25.3408 26.2778C25.5645 26.1574 25.8694 26.104 26.2695 26.104Z" fill="black" fill-opacity="0.73" stroke="white" stroke-width="0.2"/>
<path d="M26.5757 26.8157C26.6471 26.7701 26.7466 26.7695 26.8179 26.8147C26.8267 26.8203 26.8358 26.8266 26.8442 26.8333C27.0219 26.9718 27.0297 27.2782 26.8589 27.4465C26.8013 27.5032 26.7444 27.5295 26.6968 27.5295C26.6667 27.5294 26.6245 27.5125 26.5747 27.468C26.4795 27.3827 26.4259 27.2514 26.4253 27.1223C26.4248 26.9935 26.4766 26.8793 26.5757 26.8157Z" fill="#EFEFEF" stroke="white" stroke-width="0.2"/>
<path d="M25.3389 26.7739C25.4103 26.7283 25.5098 26.7277 25.5811 26.7729C25.5899 26.7786 25.5989 26.7849 25.6074 26.7915C25.7851 26.9301 25.7929 27.2364 25.6221 27.4048C25.5644 27.4615 25.5076 27.4878 25.46 27.4878C25.4299 27.4877 25.3877 27.4708 25.3379 27.4263C25.2427 27.341 25.1891 27.2097 25.1885 27.0806C25.1879 26.9518 25.2397 26.8375 25.3389 26.7739Z" fill="#EFEFEF" stroke="white" stroke-width="0.2"/>
<path d="M17.9004 2.73682C17.9426 2.73682 17.9968 2.76488 18.0449 2.84229C18.0922 2.91825 18.124 3.02963 18.124 3.15771C18.124 3.2858 18.0922 3.39718 18.0449 3.47314C17.9968 3.55056 17.9426 3.57861 17.9004 3.57861C17.8583 3.57843 17.8048 3.55026 17.7568 3.47314C17.7096 3.39718 17.6768 3.2858 17.6768 3.15771C17.6768 3.02963 17.7096 2.91825 17.7568 2.84229C17.8048 2.76518 17.8583 2.737 17.9004 2.73682Z" fill="black" fill-opacity="0.73" stroke="#EFEFEF" stroke-width="0.2"/>
<path d="M19.771 2.73682C19.8132 2.73682 19.8674 2.76488 19.9155 2.84229C19.9628 2.91825 19.9946 3.02963 19.9946 3.15771C19.9946 3.2858 19.9628 3.39718 19.9155 3.47314C19.8674 3.55056 19.8132 3.57861 19.771 3.57861C19.7289 3.57843 19.6754 3.55026 19.6274 3.47314C19.5802 3.39718 19.5474 3.2858 19.5474 3.15771C19.5474 3.02963 19.5802 2.91825 19.6274 2.84229C19.6754 2.76518 19.7289 2.737 19.771 2.73682Z" fill="black" fill-opacity="0.73" stroke="#EFEFEF" stroke-width="0.2"/>
<path d="M18.8721 0.365479C20.1814 0.365547 20.9295 1.1324 20.9297 2.02954C20.9297 2.63356 20.384 3.09196 19.5674 3.31665C18.8445 3.5155 17.8987 3.39394 17.3154 2.94263C16.9198 2.6364 16.745 2.13503 16.79 1.65845C16.8351 1.18231 17.0976 0.746399 17.5566 0.560791C17.8934 0.424642 18.3285 0.365479 18.8721 0.365479Z" fill="black" fill-opacity="0.73" stroke="#EFEFEF" stroke-width="0.2"/>
<path d="M19.7948 1.28108C20.1761 1.51499 20.1819 2.12057 19.8315 2.39874C19.7374 2.47343 19.6303 2.52138 19.5189 2.52138C19.4336 2.52138 19.3484 2.48581 19.2687 2.42823C18.8788 2.14635 18.8547 1.48239 19.2811 1.2595V1.2595C19.4208 1.18646 19.6047 1.18365 19.7459 1.25396C19.7627 1.26232 19.779 1.27138 19.7948 1.28108Z" fill="#EFEFEF"/>
<path d="M17.9251 1.22347C18.3065 1.45737 18.3123 2.06296 17.9619 2.34112C17.8678 2.41581 17.7607 2.46376 17.6493 2.46376C17.564 2.46376 17.4787 2.42819 17.3991 2.37061C17.0091 2.08873 16.985 1.42478 17.4115 1.20188V1.20188C17.5512 1.12884 17.7351 1.12603 17.8762 1.19634C17.893 1.2047 17.9093 1.21376 17.9251 1.22347Z" fill="#EFEFEF"/>
</svg>
